<?xml version="1.0" encoding="UTF-8" standalone="no"?>
<!-- Created with Inkscape (http://www.inkscape.org/) -->

<svg
   xmlns:dc="http://purl.org/dc/elements/1.1/"
   xmlns:cc="http://creativecommons.org/ns#"
   xmlns:rdf="http://www.w3.org/1999/02/22-rdf-syntax-ns#"
   xmlns:svg="http://www.w3.org/2000/svg"
   xmlns="http://www.w3.org/2000/svg"
   xmlns:sodipodi="http://sodipodi.sourceforge.net/DTD/sodipodi-0.dtd"
   xmlns:inkscape="http://www.inkscape.org/namespaces/inkscape"
   version="1.1"
   id="svg2"
   xml:space="preserve"
   width="800"
   height="1054.6667"
   viewBox="0 0 800 1054.6667"
   sodipodi:docname="pvbow.svg"
   inkscape:version="0.92.3 (2405546, 2018-03-11)"><metadata
     id="metadata8"><rdf:RDF><cc:Work
         rdf:about=""><dc:format>image/svg+xml</dc:format><dc:type
           rdf:resource="http://purl.org/dc/dcmitype/StillImage" /><dc:title></dc:title></cc:Work></rdf:RDF></metadata><defs
     id="defs6"><marker
       inkscape:stockid="Arrow2Lend"
       orient="auto"
       refY="0"
       refX="0"
       id="Arrow2Lend"
       style="overflow:visible"
       inkscape:isstock="true"><path
         id="path5253"
         style="fill:#000000;fill-opacity:1;fill-rule:evenodd;stroke:#000000;stroke-width:0.625;stroke-linejoin:round;stroke-opacity:1"
         d="M 8.7185878,4.0337352 -2.2072895,0.01601326 8.7185884,-4.0017078 c -1.7454984,2.3720609 -1.7354408,5.6174519 -6e-7,8.035443 z"
         transform="matrix(-1.1,0,0,-1.1,-1.1,0)"
         inkscape:connector-curvature="0" /></marker><marker
       inkscape:stockid="Arrow2Mend"
       orient="auto"
       refY="0"
       refX="0"
       id="Arrow2Mend"
       style="overflow:visible"
       inkscape:isstock="true"><path
         id="path5259"
         style="fill:#000000;fill-opacity:1;fill-rule:evenodd;stroke:#000000;stroke-width:0.625;stroke-linejoin:round;stroke-opacity:1"
         d="M 8.7185878,4.0337352 -2.2072895,0.01601326 8.7185884,-4.0017078 c -1.7454984,2.3720609 -1.7354408,5.6174519 -6e-7,8.035443 z"
         transform="scale(-0.6)"
         inkscape:connector-curvature="0" /></marker><marker
       inkscape:stockid="Arrow2Mend"
       orient="auto"
       refY="0"
       refX="0"
       id="Arrow2Mend-5"
       style="overflow:visible"
       inkscape:isstock="true"><path
         id="path5259-3"
         style="fill:#000000;fill-opacity:1;fill-rule:evenodd;stroke:#000000;stroke-width:0.625;stroke-linejoin:round;stroke-opacity:1"
         d="M 8.7185878,4.0337352 -2.2072895,0.01601326 8.7185884,-4.0017078 c -1.7454984,2.3720609 -1.7354408,5.6174519 -6e-7,8.035443 z"
         transform="scale(-0.6)"
         inkscape:connector-curvature="0" /></marker><marker
       inkscape:stockid="Arrow2Mend"
       orient="auto"
       refY="0"
       refX="0"
       id="Arrow2Mend-6"
       style="overflow:visible"
       inkscape:isstock="true"><path
         id="path5259-2"
         style="fill:#000000;fill-opacity:1;fill-rule:evenodd;stroke:#000000;stroke-width:0.625;stroke-linejoin:round;stroke-opacity:1"
         d="M 8.7185878,4.0337352 -2.2072895,0.01601326 8.7185884,-4.0017078 c -1.7454984,2.3720609 -1.7354408,5.6174519 -6e-7,8.035443 z"
         transform="scale(-0.6)"
         inkscape:connector-curvature="0" /></marker><marker
       inkscape:stockid="Arrow2Mend"
       orient="auto"
       refY="0"
       refX="0"
       id="Arrow2Mend-6-1"
       style="overflow:visible"
       inkscape:isstock="true"><path
         id="path5259-2-2"
         style="fill:#000000;fill-opacity:1;fill-rule:evenodd;stroke:#000000;stroke-width:0.625;stroke-linejoin:round;stroke-opacity:1"
         d="M 8.7185878,4.0337352 -2.2072895,0.01601326 8.7185884,-4.0017078 c -1.7454984,2.3720609 -1.7354408,5.6174519 -6e-7,8.035443 z"
         transform="scale(-0.6)"
         inkscape:connector-curvature="0" /></marker></defs><sodipodi:namedview
     pagecolor="#ffffff"
     bordercolor="#666666"
     borderopacity="1"
     objecttolerance="10"
     gridtolerance="10"
     guidetolerance="10"
     inkscape:pageopacity="0"
     inkscape:pageshadow="2"
     inkscape:window-width="2560"
     inkscape:window-height="1385"
     id="namedview4"
     showgrid="false"
     showguides="true"
     inkscape:guide-bbox="true"
     inkscape:snap-to-guides="false"
     inkscape:snap-grids="false"
     inkscape:zoom="0.89506946"
     inkscape:cx="157.85061"
     inkscape:cy="618.38776"
     inkscape:window-x="1920"
     inkscape:window-y="817"
     inkscape:window-maximized="1"
     inkscape:current-layer="g10" /><g
     id="g10"
     inkscape:groupmode="layer"
     inkscape:label="ink_ext_XXXXXX"
     transform="matrix(1.3333333,0,0,-1.3333333,0,1054.6667)"><path
       d="m 45.8574,531.715 c 0,-9.781 -7.9296,-17.715 -17.7148,-17.715 -9.7852,0 -17.71484,7.934 -17.71484,17.715 0,9.785 7.92964,17.715 17.71484,17.715 9.7852,0 17.7148,-7.93 17.7148,-17.715 z"
       style="fill:#000000;fill-opacity:1;fill-rule:nonzero;stroke:none;stroke-width:0.1"
       id="use352"
       inkscape:connector-curvature="0" /><path
       d="m 45.85764,487.145 c 0,-9.786 -7.9301,-17.715 -17.7153,-17.715 -9.7808,0 -17.71482,7.929 -17.71482,17.715 0,9.781 7.93402,17.714 17.71482,17.714 9.7852,0 17.7153,-7.933 17.7153,-17.714 z"
       style="fill:#cccccc;fill-opacity:1;fill-rule:nonzero;stroke:none;stroke-width:0.1"
       id="use354"
       inkscape:connector-curvature="0" /><path
       d="m 45.85763,441.43 c 0,-9.785 -7.9301,-17.715 -17.7148,-17.715 -9.7813,0 -17.7153,7.93 -17.7153,17.715 0,9.781 7.934,17.715 17.7153,17.715 9.7847,0 17.7148,-7.934 17.7148,-17.715 z"
       style="fill:#cccccc;fill-opacity:1;fill-rule:nonzero;stroke:none;stroke-width:0.1"
       id="use356"
       inkscape:connector-curvature="0" /><path
       d="m 45.85508,374 c 0,-9.781 -7.9289,-17.715 -17.7102,-17.715 -9.7859,0 -17.7148,7.934 -17.7148,17.715 0,9.785 7.9289,17.715 17.7148,17.715 9.7813,0 17.7102,-7.93 17.7102,-17.715 z"
       style="fill:#cccccc;fill-opacity:1;fill-rule:nonzero;stroke:none;stroke-width:0.1"
       id="use358"
       inkscape:connector-curvature="0" /><path
       d="m 45.85763,327.715 c 0,-9.781 -7.934,-17.715 -17.7153,-17.715 -9.7847,0 -17.7148,7.934 -17.7148,17.715 0,9.785 7.9301,17.715 17.7148,17.715 9.7813,0 17.7153,-7.93 17.7153,-17.715 z"
       style="fill:#cccccc;fill-opacity:1;fill-rule:nonzero;stroke:none;stroke-width:0.1"
       id="use360"
       inkscape:connector-curvature="0" /><path
       d="m 45.85763,281.43 c 0,-9.785 -7.9301,-17.715 -17.7148,-17.715 -9.7813,0 -17.7153,7.93 -17.7153,17.715 0,9.781 7.934,17.715 17.7153,17.715 9.7847,0 17.7148,-7.934 17.7148,-17.715 z"
       style="fill:#cccccc;fill-opacity:1;fill-rule:nonzero;stroke:none;stroke-width:0.1"
       id="use362"
       inkscape:connector-curvature="0" /><path
       inkscape:connector-curvature="0"
       id="path14"
       style="fill:#ffffff;fill-opacity:1;fill-rule:nonzero;stroke:none;stroke-width:0.1"
       d="m 174.301,257.875 h 51.684 V 559.84 h -51.684 z" /><path
       inkscape:connector-curvature="0"
       id="path16"
       style="fill:none;stroke:#000000;stroke-width:1.40848696;stroke-linecap:round;stroke-linejoin:round;stroke-miterlimit:4;stroke-dasharray:5.63395662, 5.63395662;stroke-dashoffset:0;stroke-opacity:1"
       d="m 174.23791,299.08555 h 51.81018 v 215.98861 h -51.81018 z" /><path
       inkscape:connector-curvature="0"
       id="path20"
       style="fill:#000000;fill-opacity:1;fill-rule:nonzero;stroke:none;stroke-width:0.1"
       d="m 218.02812,488.285 c 0,-9.781 -7.92901,-17.711 -17.71001,-17.711 -9.786,0 -17.715,7.93 -17.715,17.711 0,9.785 7.929,17.715 17.715,17.715 9.781,0 17.71001,-7.93 17.71001,-17.715 z" /><path
       inkscape:connector-curvature="0"
       id="path22"
       style="fill:#000000;fill-opacity:1;fill-rule:nonzero;stroke:none;stroke-width:0.1"
       d="m 218.02812,444.24985 c 0,-9.785 -7.92901,-17.715 -17.71501,-17.715 -9.781,0 -17.71,7.93 -17.71,17.715 0,9.781 7.929,17.711 17.71,17.711 9.786,0 17.71501,-7.93 17.71501,-17.711 z" /><path
       inkscape:connector-curvature="0"
       id="path24"
       style="fill:#000000;fill-opacity:1;fill-rule:nonzero;stroke:none;stroke-width:0.1"
       d="m 218.03061,375.145 c 0,-9.786 -7.934,-17.715 -17.715,-17.715 -9.785,0 -17.715,7.929 -17.715,17.715 0,9.781 7.93,17.714 17.715,17.714 9.781,0 17.715,-7.933 17.715,-17.714 z" /><path
       inkscape:connector-curvature="0"
       id="path26"
       style="fill:#000000;fill-opacity:1;fill-rule:nonzero;stroke:none;stroke-width:0.1"
       d="m 218.03061,328.859 c 0,-9.785 -7.93,-17.714 -17.715,-17.714 -9.781,0 -17.715,7.929 -17.715,17.714 0,9.782 7.934,17.715 17.715,17.715 9.785,0 17.715,-7.933 17.715,-17.715 z" /><path
       inkscape:connector-curvature="0"
       id="path30"
       style="fill:#000000;fill-opacity:1;fill-rule:nonzero;stroke:none;stroke-width:0.1"
       d="m 199.059,412.871 c -0.586,-0.008 -1.09,0.211 -1.516,0.656 -0.414,0.45 -0.625,0.953 -0.625,1.516 -0.008,0.586 0.195,1.102 0.609,1.547 0.414,0.449 0.914,0.68 1.5,0.687 0.602,0 1.11,-0.218 1.516,-0.656 0.406,-0.445 0.613,-0.961 0.625,-1.547 0,-0.562 -0.203,-1.066 -0.609,-1.515 -0.399,-0.457 -0.899,-0.688 -1.5,-0.688 z" /><path
       inkscape:connector-curvature="0"
       id="path32"
       style="fill:#000000;fill-opacity:1;fill-rule:nonzero;stroke:none;stroke-width:0.1"
       d="m 199.121,405.934 c -0.586,-0.008 -1.09,0.211 -1.516,0.656 -0.414,0.449 -0.625,0.953 -0.625,1.515 -0.007,0.586 0.196,1.102 0.61,1.547 0.414,0.45 0.914,0.68 1.5,0.688 0.601,0 1.109,-0.219 1.515,-0.656 0.407,-0.446 0.614,-0.961 0.625,-1.547 0,-0.563 -0.203,-1.067 -0.609,-1.516 -0.398,-0.457 -0.898,-0.687 -1.5,-0.687 z" /><path
       inkscape:connector-curvature="0"
       id="path34"
       style="fill:#000000;fill-opacity:1;fill-rule:nonzero;stroke:none;stroke-width:0.1"
       d="m 199.184,398.996 c -0.586,-0.008 -1.09,0.211 -1.516,0.656 -0.414,0.45 -0.625,0.953 -0.625,1.516 -0.008,0.586 0.195,1.102 0.609,1.547 0.414,0.449 0.914,0.68 1.5,0.687 0.602,0 1.11,-0.218 1.516,-0.656 0.406,-0.445 0.613,-0.961 0.625,-1.547 0,-0.562 -0.203,-1.066 -0.609,-1.515 -0.399,-0.457 -0.899,-0.688 -1.5,-0.688 z" /><path
       inkscape:connector-curvature="0"
       id="path36"
       style="fill:#ffffff;fill-opacity:1;fill-rule:nonzero;stroke:none;stroke-width:0.1"
       d="m 564.68,610.68 h 30.727 V 790.211 H 564.68 Z" /><path
       inkscape:connector-curvature="0"
       id="path38"
       style="fill:none;stroke:#000000;stroke-width:0.98892403;stroke-linecap:round;stroke-linejoin:round;stroke-miterlimit:4;stroke-dasharray:3.9557, 3.9557;stroke-dashoffset:0;stroke-opacity:1"
       d="m 566.164,610.086 h 30.727 v 179.531 h -30.727 z" /><path
       inkscape:connector-curvature="0"
       id="path40"
       style="fill:#cccccc;fill-opacity:1;fill-rule:nonzero;stroke:none;stroke-width:0.1"
       d="m 592.4595,773.574 c 0,-5.816 -4.715,-10.531 -10.531,-10.531 -5.817,0 -10.532,4.715 -10.532,10.531 0,5.817 4.715,10.531 10.532,10.531 5.816,0 10.531,-4.714 10.531,-10.531 z" /><path
       inkscape:connector-curvature="0"
       id="path42"
       style="fill:#cccccc;fill-opacity:1;fill-rule:nonzero;stroke:none;stroke-width:0.1"
       d="m 592.4595,747.074 c 0,-5.816 -4.715,-10.531 -10.532,-10.531 -5.816,0 -10.531,4.715 -10.531,10.531 0,5.817 4.715,10.531 10.531,10.531 5.817,0 10.532,-4.714 10.532,-10.531 z" /><path
       inkscape:connector-curvature="0"
       id="path44"
       style="fill:#000000;fill-opacity:1;fill-rule:nonzero;stroke:none;stroke-width:0.1"
       d="m 592.459,719.895 c 0,-5.817 -4.715,-10.532 -10.531,-10.532 -5.817,0 -10.531,4.715 -10.531,10.532 0,5.816 4.714,10.531 10.531,10.531 5.816,0 10.531,-4.715 10.531,-10.531 z" /><path
       inkscape:connector-curvature="0"
       id="path46"
       style="fill:#cccccc;fill-opacity:1;fill-rule:nonzero;stroke:none;stroke-width:0.1"
       d="m 592.459,679.809 c 0,-5.817 -4.714,-10.536 -10.531,-10.536 -5.816,0 -10.531,4.719 -10.531,10.536 0,5.816 4.715,10.531 10.531,10.531 5.817,0 10.531,-4.715 10.531,-10.531 z" /><path
       inkscape:connector-curvature="0"
       id="path48"
       style="fill:#cccccc;fill-opacity:1;fill-rule:nonzero;stroke:none;stroke-width:0.1"
       d="m 592.459,652.289 c 0,-5.816 -4.715,-10.531 -10.531,-10.531 -5.816,0 -10.531,4.715 -10.531,10.531 0,5.816 4.715,10.531 10.531,10.531 5.816,0 10.531,-4.715 10.531,-10.531 z" /><path
       inkscape:connector-curvature="0"
       id="path50"
       style="fill:#cccccc;fill-opacity:1;fill-rule:nonzero;stroke:none;stroke-width:0.1"
       d="m 592.459,624.77 c 0,-5.817 -4.715,-10.532 -10.531,-10.532 -5.817,0 -10.531,4.715 -10.531,10.532 0,5.816 4.714,10.531 10.531,10.531 5.816,0 10.531,-4.715 10.531,-10.531 z" /><path
       inkscape:connector-curvature="0"
       id="path52"
       style="fill:#000000;fill-opacity:1;fill-rule:nonzero;stroke:none;stroke-width:0.1"
       d="m 580.879,702.246 c -0.344,-0.008 -0.641,0.121 -0.891,0.391 -0.25,0.261 -0.375,0.558 -0.375,0.89 0,0.344 0.121,0.653 0.36,0.922 0.238,0.262 0.531,0.399 0.875,0.406 0.363,0 0.664,-0.128 0.906,-0.39 0.25,-0.27 0.375,-0.578 0.375,-0.922 0,-0.332 -0.121,-0.629 -0.359,-0.891 -0.231,-0.269 -0.528,-0.406 -0.891,-0.406 z" /><path
       inkscape:connector-curvature="0"
       id="path54"
       style="fill:#000000;fill-opacity:1;fill-rule:nonzero;stroke:none;stroke-width:0.1"
       d="m 580.914,698.121 c -0.344,-0.008 -0.641,0.121 -0.891,0.391 -0.25,0.261 -0.375,0.558 -0.375,0.89 0,0.344 0.122,0.653 0.36,0.922 0.238,0.262 0.531,0.399 0.875,0.406 0.363,0 0.664,-0.128 0.906,-0.39 0.25,-0.27 0.375,-0.578 0.375,-0.922 0,-0.332 -0.121,-0.629 -0.359,-0.891 -0.231,-0.269 -0.528,-0.406 -0.891,-0.406 z" /><path
       inkscape:connector-curvature="0"
       id="path56"
       style="fill:#000000;fill-opacity:1;fill-rule:nonzero;stroke:none;stroke-width:0.1"
       d="m 580.953,693.996 c -0.344,-0.008 -0.641,0.121 -0.891,0.391 -0.25,0.261 -0.374,0.558 -0.374,0.89 0,0.344 0.121,0.653 0.359,0.922 0.238,0.262 0.531,0.399 0.875,0.406 0.363,0 0.664,-0.128 0.906,-0.39 0.25,-0.27 0.375,-0.578 0.375,-0.922 0,-0.332 -0.121,-0.629 -0.359,-0.891 -0.231,-0.269 -0.528,-0.406 -0.891,-0.406 z" /><path
       inkscape:connector-curvature="0"
       id="path58"
       style="fill:#ffffff;fill-opacity:1;fill-rule:nonzero;stroke:none;stroke-width:0.1"
       d="m 565.207,415.094 h 30.727 v 179.527 h -30.727 z" /><path
       inkscape:connector-curvature="0"
       id="path60"
       style="fill:none;stroke:#000000;stroke-width:0.98892403;stroke-linecap:round;stroke-linejoin:round;stroke-miterlimit:4;stroke-dasharray:3.9557, 3.9557;stroke-dashoffset:0;stroke-opacity:1"
       d="m 566.098,406.797 h 30.727 v 179.527 h -30.727 z" /><path
       inkscape:connector-curvature="0"
       id="path62"
       style="fill:#cccccc;fill-opacity:1;fill-rule:nonzero;stroke:none;stroke-width:0.1"
       d="m 592.459,570.285 c 0,-5.82 -4.714,-10.535 -10.531,-10.535 -5.816,0 -10.531,4.715 -10.531,10.535 0,5.817 4.715,10.531 10.531,10.531 5.817,0 10.531,-4.714 10.531,-10.531 z" /><path
       inkscape:connector-curvature="0"
       id="path64"
       style="fill:#000000;fill-opacity:1;fill-rule:nonzero;stroke:none;stroke-width:0.1"
       d="m 592.459,543.785 c 0,-5.816 -4.715,-10.531 -10.531,-10.531 -5.816,0 -10.531,4.715 -10.531,10.531 0,5.817 4.715,10.531 10.531,10.531 5.816,0 10.531,-4.714 10.531,-10.531 z" /><path
       inkscape:connector-curvature="0"
       id="path66"
       style="fill:#cccccc;fill-opacity:1;fill-rule:nonzero;stroke:none;stroke-width:0.1"
       d="m 592.4595,516.605 c 0,-5.816 -4.715,-10.531 -10.532,-10.531 -5.816,0 -10.531,4.715 -10.531,10.531 0,5.817 4.715,10.532 10.531,10.532 5.817,0 10.532,-4.715 10.532,-10.532 z" /><path
       inkscape:connector-curvature="0"
       id="path68"
       style="fill:#cccccc;fill-opacity:1;fill-rule:nonzero;stroke:none;stroke-width:0.1"
       d="m 592.459,476.516 c 0,-5.817 -4.715,-10.532 -10.531,-10.532 -5.817,0 -10.531,4.715 -10.531,10.532 0,5.816 4.714,10.531 10.531,10.531 5.816,0 10.531,-4.715 10.531,-10.531 z" /><path
       inkscape:connector-curvature="0"
       id="path70"
       style="fill:#cccccc;fill-opacity:1;fill-rule:nonzero;stroke:none;stroke-width:0.1"
       d="m 592.4595,449 c 0,-5.816 -4.715,-10.535 -10.531,-10.535 -5.817,0 -10.532,4.719 -10.532,10.535 0,5.816 4.715,10.531 10.532,10.531 5.816,0 10.531,-4.715 10.531,-10.531 z" /><path
       inkscape:connector-curvature="0"
       id="path72"
       style="fill:#cccccc;fill-opacity:1;fill-rule:nonzero;stroke:none;stroke-width:0.1"
       d="m 592.4595,421.48 c 0,-5.816 -4.715,-10.531 -10.532,-10.531 -5.816,0 -10.531,4.715 -10.531,10.531 0,5.817 4.715,10.532 10.531,10.532 5.817,0 10.532,-4.715 10.532,-10.532 z" /><path
       inkscape:connector-curvature="0"
       id="path74"
       style="fill:#000000;fill-opacity:1;fill-rule:nonzero;stroke:none;stroke-width:0.1"
       d="m 580.812,498.957 c -0.343,-0.008 -0.64,0.121 -0.89,0.391 -0.25,0.261 -0.375,0.558 -0.375,0.89 0,0.344 0.121,0.653 0.359,0.922 0.239,0.262 0.532,0.399 0.875,0.406 0.364,0 0.664,-0.128 0.907,-0.39 0.25,-0.27 0.374,-0.578 0.374,-0.922 0,-0.332 -0.121,-0.629 -0.359,-0.891 -0.23,-0.269 -0.527,-0.406 -0.891,-0.406 z" /><path
       inkscape:connector-curvature="0"
       id="path76"
       style="fill:#000000;fill-opacity:1;fill-rule:nonzero;stroke:none;stroke-width:0.1"
       d="m 580.852,494.832 c -0.344,-0.008 -0.641,0.121 -0.891,0.391 -0.25,0.261 -0.375,0.558 -0.375,0.89 0,0.344 0.121,0.653 0.359,0.922 0.239,0.262 0.532,0.399 0.875,0.406 0.364,0 0.664,-0.129 0.907,-0.39 0.25,-0.27 0.375,-0.578 0.375,-0.922 0,-0.332 -0.122,-0.629 -0.36,-0.891 -0.23,-0.269 -0.527,-0.406 -0.89,-0.406 z" /><path
       inkscape:connector-curvature="0"
       id="path78"
       style="fill:#000000;fill-opacity:1;fill-rule:nonzero;stroke:none;stroke-width:0.1"
       d="m 580.887,490.707 c -0.344,-0.008 -0.641,0.121 -0.891,0.391 -0.25,0.261 -0.375,0.558 -0.375,0.89 0,0.344 0.121,0.653 0.359,0.922 0.239,0.262 0.532,0.399 0.875,0.406 0.364,0 0.665,-0.128 0.907,-0.39 0.25,-0.27 0.375,-0.578 0.375,-0.922 0,-0.332 -0.121,-0.629 -0.36,-0.891 -0.23,-0.269 -0.527,-0.406 -0.89,-0.406 z" /><path
       inkscape:connector-curvature="0"
       id="path80"
       style="fill:#ffffff;fill-opacity:1;fill-rule:nonzero;stroke:none;stroke-width:0.1"
       d="m 566.352,202.524 h 30.727 v 179.527 h -30.727 z" /><path
       inkscape:connector-curvature="0"
       id="path82"
       style="fill:none;stroke:#000000;stroke-width:0.98892403;stroke-linecap:round;stroke-linejoin:round;stroke-miterlimit:4;stroke-dasharray:3.9557, 3.9557;stroke-dashoffset:0;stroke-opacity:1"
       d="m 566.352,207.325 h 30.727 v 179.527 h -30.727 z" /><path
       inkscape:connector-curvature="0"
       id="path84"
       style="fill:#cccccc;fill-opacity:1;fill-rule:nonzero;stroke:none;stroke-width:0.1"
       d="m 592.459,370.809 c 0,-5.817 -4.715,-10.532 -10.531,-10.532 -5.816,0 -10.531,4.715 -10.531,10.532 0,5.812 4.715,10.531 10.531,10.531 5.816,0 10.531,-4.719 10.531,-10.531 z" /><path
       inkscape:connector-curvature="0"
       id="path86"
       style="fill:#cccccc;fill-opacity:1;fill-rule:nonzero;stroke:none;stroke-width:0.1"
       d="m 592.459,344.309 c 0,-5.817 -4.715,-10.532 -10.531,-10.532 -5.817,0 -10.531,4.715 -10.531,10.532 0,5.812 4.714,10.535 10.531,10.535 5.816,0 10.531,-4.723 10.531,-10.535 z" /><path
       inkscape:connector-curvature="0"
       id="path88"
       style="fill:#cccccc;fill-opacity:1;fill-rule:nonzero;stroke:none;stroke-width:0.1"
       d="m 592.4595,317.133 c 0,-5.817 -4.715,-10.531 -10.532,-10.531 -5.816,0 -10.531,4.714 -10.531,10.531 0,5.816 4.715,10.527 10.531,10.527 5.817,0 10.532,-4.711 10.532,-10.527 z" /><path
       inkscape:connector-curvature="0"
       id="path90"
       style="fill:#000000;fill-opacity:1;fill-rule:nonzero;stroke:none;stroke-width:0.1"
       d="m 592.4595,277.039 c 0,-5.812 -4.715,-10.527 -10.531,-10.527 -5.817,0 -10.532,4.715 -10.532,10.527 0,5.82 4.715,10.535 10.532,10.535 5.816,0 10.531,-4.715 10.531,-10.535 z" /><path
       inkscape:connector-curvature="0"
       id="path92"
       style="fill:#cccccc;fill-opacity:1;fill-rule:nonzero;stroke:none;stroke-width:0.1"
       d="m 592.4595,249.523 c 0,-5.82 -4.715,-10.531 -10.531,-10.531 -5.817,0 -10.532,4.711 -10.532,10.531 0,5.817 4.715,10.532 10.532,10.532 5.816,0 10.531,-4.715 10.531,-10.532 z" /><path
       inkscape:connector-curvature="0"
       id="path94"
       style="fill:#cccccc;fill-opacity:1;fill-rule:nonzero;stroke:none;stroke-width:0.1"
       d="m 592.4595,222.008 c 0,-5.817 -4.715,-10.535 -10.532,-10.535 -5.816,0 -10.531,4.718 -10.531,10.535 0,5.816 4.715,10.527 10.531,10.527 5.817,0 10.532,-4.711 10.532,-10.527 z" /><path
       inkscape:connector-curvature="0"
       id="path96"
       style="fill:#000000;fill-opacity:1;fill-rule:nonzero;stroke:none;stroke-width:0.1"
       d="m 581.066,299.484 c -0.343,-0.007 -0.64,0.121 -0.89,0.387 -0.25,0.266 -0.375,0.563 -0.375,0.895 0,0.343 0.121,0.648 0.359,0.922 0.238,0.261 0.531,0.398 0.875,0.406 0.363,0 0.664,-0.129 0.906,-0.395 0.25,-0.265 0.375,-0.578 0.375,-0.918 0,-0.332 -0.121,-0.629 -0.359,-0.89 -0.23,-0.274 -0.527,-0.407 -0.891,-0.407 z" /><path
       inkscape:connector-curvature="0"
       id="path98"
       style="fill:#000000;fill-opacity:1;fill-rule:nonzero;stroke:none;stroke-width:0.1"
       d="m 581.102,295.359 c -0.344,-0.007 -0.641,0.121 -0.891,0.387 -0.25,0.266 -0.375,0.563 -0.375,0.895 0,0.343 0.121,0.648 0.359,0.921 0.239,0.262 0.532,0.399 0.875,0.407 0.364,0 0.664,-0.129 0.907,-0.395 0.25,-0.265 0.375,-0.578 0.375,-0.918 0,-0.332 -0.122,-0.629 -0.36,-0.89 -0.23,-0.274 -0.527,-0.407 -0.89,-0.407 z" /><path
       inkscape:connector-curvature="0"
       id="path100"
       style="fill:#000000;fill-opacity:1;fill-rule:nonzero;stroke:none;stroke-width:0.1"
       d="m 581.141,291.234 c -0.344,-0.007 -0.641,0.121 -0.891,0.387 -0.25,0.266 -0.375,0.563 -0.375,0.895 0,0.343 0.121,0.648 0.359,0.922 0.239,0.261 0.532,0.398 0.875,0.406 0.364,0 0.664,-0.129 0.907,-0.395 0.25,-0.265 0.375,-0.578 0.375,-0.918 0,-0.332 -0.121,-0.629 -0.36,-0.89 -0.23,-0.274 -0.527,-0.407 -0.89,-0.407 z" /><path
       inkscape:connector-curvature="0"
       id="path102"
       style="fill:#ffffff;fill-opacity:1;fill-rule:nonzero;stroke:none;stroke-width:0.1"
       d="m 566.352,0.808984 h 30.727 V 180.33598 h -30.727 z" /><path
       inkscape:connector-curvature="0"
       id="path104"
       style="fill:none;stroke:#000000;stroke-width:0.98892403;stroke-linecap:round;stroke-linejoin:round;stroke-miterlimit:4;stroke-dasharray:3.9557, 3.9557;stroke-dashoffset:0;stroke-opacity:1"
       d="m 566.352,0.808984 h 30.727 V 180.33598 h -30.727 z" /><path
       inkscape:connector-curvature="0"
       id="path106"
       style="fill:#cccccc;fill-opacity:1;fill-rule:nonzero;stroke:none;stroke-width:0.1"
       d="m 592.459,164.293 c 0,-5.816 -4.715,-10.531 -10.531,-10.531 -5.816,0 -10.531,4.715 -10.531,10.531 0,5.816 4.715,10.531 10.531,10.531 5.816,0 10.531,-4.715 10.531,-10.531 z" /><path
       inkscape:connector-curvature="0"
       id="path108"
       style="fill:#cccccc;fill-opacity:1;fill-rule:nonzero;stroke:none;stroke-width:0.1"
       d="m 592.459,137.797 c 0,-5.817 -4.715,-10.535 -10.531,-10.535 -5.817,0 -10.531,4.718 -10.531,10.535 0,5.816 4.714,10.531 10.531,10.531 5.816,0 10.531,-4.715 10.531,-10.531 z" /><path
       inkscape:connector-curvature="0"
       id="path110"
       style="fill:#cccccc;fill-opacity:1;fill-rule:nonzero;stroke:none;stroke-width:0.1"
       d="m 592.4595,110.617 c 0,-5.816 -4.715,-10.531 -10.532,-10.531 -5.816,0 -10.531,4.715 -10.531,10.531 0,5.817 4.715,10.531 10.531,10.531 5.817,0 10.532,-4.714 10.532,-10.531 z" /><path
       inkscape:connector-curvature="0"
       id="path112"
       style="fill:#cccccc;fill-opacity:1;fill-rule:nonzero;stroke:none;stroke-width:0.1"
       d="m 592.4595,70.527 c 0,-5.8161 -4.715,-10.5309 -10.531,-10.5309 -5.817,0 -10.532,4.7148 -10.532,10.5309 0,5.8171 4.715,10.532 10.532,10.532 5.816,0 10.531,-4.7149 10.531,-10.532 z" /><path
       inkscape:connector-curvature="0"
       id="path114"
       style="fill:#000000;fill-opacity:1;fill-rule:nonzero;stroke:none;stroke-width:0.1"
       d="m 592.4595,43.0078 c 0,-5.8168 -4.715,-10.5308 -10.531,-10.5308 -5.817,0 -10.532,4.714 -10.532,10.5308 0,5.816 4.715,10.5352 10.532,10.5352 5.816,0 10.531,-4.7192 10.531,-10.5352 z" /><path
       inkscape:connector-curvature="0"
       id="path116"
       style="fill:#cccccc;fill-opacity:1;fill-rule:nonzero;stroke:none;stroke-width:0.1"
       d="m 592.4595,15.4922 c 0,-5.81603 -4.715,-10.53126 -10.532,-10.53126 -5.816,0 -10.531,4.71523 -10.531,10.53126 0,5.8168 4.715,10.5308 10.531,10.5308 5.817,0 10.532,-4.714 10.532,-10.5308 z" /><path
       inkscape:connector-curvature="0"
       id="path118"
       style="fill:#000000;fill-opacity:1;fill-rule:nonzero;stroke:none;stroke-width:0.1"
       d="m 581.066,92.9691 c -0.343,-0.0082 -0.64,0.1207 -0.89,0.3899 -0.25,0.2621 -0.375,0.559 -0.375,0.891 0,0.3441 0.121,0.652 0.359,0.9219 0.238,0.2621 0.531,0.398 0.875,0.4062 0.363,0 0.664,-0.1293 0.906,-0.3902 0.25,-0.2699 0.375,-0.5789 0.375,-0.9219 0,-0.332 -0.121,-0.6289 -0.359,-0.891 -0.23,-0.2699 -0.527,-0.4059 -0.891,-0.4059 z" /><path
       inkscape:connector-curvature="0"
       id="path120"
       style="fill:#000000;fill-opacity:1;fill-rule:nonzero;stroke:none;stroke-width:0.1"
       d="m 581.102,88.8441 c -0.344,-0.0082 -0.641,0.1207 -0.891,0.3899 -0.25,0.2621 -0.375,0.559 -0.375,0.891 0,0.3441 0.121,0.652 0.359,0.9219 0.239,0.2621 0.532,0.398 0.875,0.4062 0.364,0 0.664,-0.1293 0.907,-0.391 0.25,-0.2691 0.375,-0.5781 0.375,-0.9211 0,-0.332 -0.122,-0.6289 -0.36,-0.891 -0.23,-0.2699 -0.527,-0.4059 -0.89,-0.4059 z" /><path
       inkscape:connector-curvature="0"
       id="path122"
       style="fill:#000000;fill-opacity:1;fill-rule:nonzero;stroke:none;stroke-width:0.1"
       d="m 581.141,84.7191 c -0.344,-0.0082 -0.641,0.1207 -0.891,0.3899 -0.25,0.2621 -0.375,0.559 -0.375,0.891 0,0.3441 0.121,0.652 0.359,0.9219 0.239,0.2621 0.532,0.398 0.875,0.4062 0.364,0 0.664,-0.1293 0.907,-0.3902 0.25,-0.2699 0.375,-0.5789 0.375,-0.9219 0,-0.332 -0.121,-0.6289 -0.36,-0.891 -0.23,-0.2699 -0.527,-0.4059 -0.89,-0.4059 z" /><path
       inkscape:connector-curvature="0"
       id="path124"
       style="fill:#ffffff;fill-opacity:1;fill-rule:nonzero;stroke:none;stroke-width:0.1"
       d="m 1.73008,256.73 h 51.6801 V 558.699 H 1.73008 Z" /><path
       inkscape:connector-curvature="0"
       id="path126"
       style="fill:none;stroke:#000000;stroke-width:1.66336;stroke-linecap:round;stroke-linejoin:round;stroke-miterlimit:4;stroke-dasharray:6.65345, 6.65345;stroke-dashoffset:0;stroke-opacity:1"
       d="m 1.73008,256.73 h 51.6801 V 558.699 H 1.73008 Z" /><path
       inkscape:connector-curvature="0"
       id="path128"
       style="fill:#000000;fill-opacity:1;fill-rule:nonzero;stroke:none;stroke-width:0.1"
       d="m 44.3574,531.715 c 0,-9.781 -7.9296,-17.715 -17.7148,-17.715 -9.7852,0 -17.71484,7.934 -17.71484,17.715 0,9.785 7.92964,17.715 17.71484,17.715 9.7852,0 17.7148,-7.93 17.7148,-17.715 z" /><path
       inkscape:connector-curvature="0"
       id="path130"
       style="fill:#cccccc;fill-opacity:1;fill-rule:nonzero;stroke:none;stroke-width:0.1"
       d="m 44.35764,486.57298 c 0,-9.786 -7.9301,-17.715 -17.7153,-17.715 -9.7808,0 -17.71482,7.929 -17.71482,17.715 0,9.781 7.93402,17.714 17.71482,17.714 9.7852,0 17.7153,-7.933 17.7153,-17.714 z" /><path
       inkscape:connector-curvature="0"
       id="path132"
       style="fill:#cccccc;fill-opacity:1;fill-rule:nonzero;stroke:none;stroke-width:0.1"
       d="m 44.35763,441.43 c 0,-9.785 -7.9301,-17.715 -17.7148,-17.715 -9.7813,0 -17.7153,7.93 -17.7153,17.715 0,9.781 7.934,17.715 17.7153,17.715 9.7847,0 17.7148,-7.934 17.7148,-17.715 z" /><path
       inkscape:connector-curvature="0"
       id="path134"
       style="fill:#cccccc;fill-opacity:1;fill-rule:nonzero;stroke:none;stroke-width:0.1"
       d="m 44.35508,374 c 0,-9.781 -7.9289,-17.715 -17.7102,-17.715 -9.7859,0 -17.7148,7.934 -17.7148,17.715 0,9.785 7.9289,17.715 17.7148,17.715 9.7813,0 17.7102,-7.93 17.7102,-17.715 z" /><path
       inkscape:connector-curvature="0"
       id="path136"
       style="fill:#cccccc;fill-opacity:1;fill-rule:nonzero;stroke:none;stroke-width:0.1"
       d="m 44.35763,327.715 c 0,-9.781 -7.934,-17.715 -17.7153,-17.715 -9.7847,0 -17.7148,7.934 -17.7148,17.715 0,9.785 7.9301,17.715 17.7148,17.715 9.7813,0 17.7153,-7.93 17.7153,-17.715 z" /><path
       inkscape:connector-curvature="0"
       id="path138"
       style="fill:#cccccc;fill-opacity:1;fill-rule:nonzero;stroke:none;stroke-width:0.1"
       d="m 44.35763,281.43 c 0,-9.785 -7.9301,-17.715 -17.7148,-17.715 -9.7813,0 -17.7153,7.93 -17.7153,17.715 0,9.781 7.934,17.715 17.7153,17.715 9.7847,0 17.7148,-7.934 17.7148,-17.715 z" /><path
       inkscape:connector-curvature="0"
       id="path140"
       style="fill:#000000;fill-opacity:1;fill-rule:nonzero;stroke:none;stroke-width:0.1"
       d="m 26.4879,411.727 c -0.5859,-0.008 -1.0899,0.211 -1.5149,0.656 -0.414,0.449 -0.625,0.953 -0.625,1.515 -0.0082,0.586 0.195,1.102 0.609,1.547 0.4141,0.45 0.9141,0.68 1.5,0.688 0.602,0 1.109,-0.219 1.516,-0.656 0.4059,-0.446 0.6129,-0.961 0.625,-1.547 0,-0.563 -0.2031,-1.067 -0.6101,-1.516 -0.3981,-0.457 -0.8981,-0.687 -1.5,-0.687 z" /><path
       inkscape:connector-curvature="0"
       id="path142"
       style="fill:#000000;fill-opacity:1;fill-rule:nonzero;stroke:none;stroke-width:0.1"
       d="m 26.5512,404.789 c -0.5864,-0.008 -1.0903,0.211 -1.516,0.656 -0.4141,0.45 -0.625,0.953 -0.625,1.516 -0.0082,0.586 0.1949,1.101 0.6097,1.547 0.4141,0.449 0.9141,0.68 1.5,0.687 0.6012,0 1.109,-0.218 1.5153,-0.656 0.4058,-0.445 0.6128,-0.961 0.625,-1.547 0,-0.562 -0.2032,-1.066 -0.609,-1.515 -0.3992,-0.457 -0.8992,-0.688 -1.5,-0.688 z" /><path
       inkscape:connector-curvature="0"
       id="path144"
       style="fill:#000000;fill-opacity:1;fill-rule:nonzero;stroke:none;stroke-width:0.1"
       d="m 26.6129,397.852 c -0.5859,-0.008 -1.0899,0.21 -1.5149,0.656 -0.414,0.449 -0.625,0.953 -0.625,1.515 -0.0082,0.586 0.195,1.102 0.609,1.547 0.4141,0.45 0.9141,0.68 1.5,0.688 0.602,0 1.109,-0.219 1.516,-0.656 0.4059,-0.446 0.6129,-0.961 0.625,-1.547 0,-0.563 -0.2031,-1.067 -0.6101,-1.516 -0.3981,-0.457 -0.8981,-0.687 -1.5,-0.687 z" /><path
       inkscape:connector-curvature="0"
       id="path146"
       style="fill:#1a1a1a;fill-opacity:1;fill-rule:nonzero;stroke:none;stroke-width:0.02184931"
       d="m 153.5188,393.60794 -0.0425,7.83548 -0.0405,7.83485 8.03187,-3.88738 8.03302,-3.88717 z" /><path
       inkscape:connector-curvature="0"
       id="path164"
       style="fill:#000000;fill-opacity:1;fill-rule:nonzero;stroke:none;stroke-width:0.1"
       d="m 18.043,601.148 v -18.14 h 3.8121 c 3.2187,0 5.5711,0.726 7.0629,2.187 1.5,1.457 2.25,3.758 2.25,6.907 0,3.125 -0.75,5.41 -2.25,6.859 -1.4918,1.457 -3.8442,2.187 -7.0629,2.187 z m -3.1559,2.594 h 6.484 c 4.5199,0 7.8359,-0.945 9.9527,-2.828 2.1141,-1.875 3.1723,-4.812 3.1723,-8.812 0,-4.024 -1.0621,-6.977 -3.1871,-8.86 -2.125,-1.887 -5.4379,-2.828 -9.9379,-2.828 h -6.484 z" /><path
       inkscape:connector-curvature="0"
       id="path166"
       style="fill:#000000;fill-opacity:1;fill-rule:nonzero;stroke:none;stroke-width:0.1"
       d="m 190.93,554.211 h 3.156 v -9.563 h 11.469 v 9.563 h 3.156 v -23.328 h -3.156 v 11.109 h -11.469 v -11.109 h -3.156 z" /><rect
       style="fill:#000000;stroke-width:0.53299254"
       id="rect4091"
       width="63.326622"
       height="52.3531"
       x="-1.3277057"
       y="-440.5983"
       transform="matrix(1,0,-0.201601,-0.97946773,0,0)" /><path
       inkscape:connector-curvature="0"
       id="path168"
       style="fill:#ffffff;fill-opacity:1;fill-rule:nonzero;stroke:none;stroke-width:0.1"
       d="m 95.1559,420.098 h 3.1882 l 4.9059,-19.719 4.891,19.719 h 3.547 l 4.906,-19.719 4.89,19.719 h 3.204 l -5.86,-23.328 h -3.969 l -4.921,20.25 -4.9689,-20.25 H 101 Z" /><path
       inkscape:connector-curvature="0"
       id="path170"
       style="fill:#ffffff;fill-opacity:1;fill-rule:nonzero;stroke:none;stroke-width:0.1"
       d="m 123.484,401.043 h 1.26602 v -8.20313 H 123.484 Z m 0,3.187 h 1.26602 v -1.70313 H 123.484 Z" /><path
       inkscape:connector-curvature="0"
       id="path172"
       style="fill:#ffffff;fill-opacity:1;fill-rule:nonzero;stroke:none;stroke-width:0.1"
       d="m 133.648,397.793 v -4.953 h -1.265 v 4.906 c 0,0.781 -0.141,1.363 -0.422,1.75 -0.281,0.383 -0.703,0.578 -1.266,0.578 -0.679,0 -1.215,-0.234 -1.609,-0.703 -0.398,-0.461 -0.594,-1.09 -0.594,-1.891 v -4.64 h -1.265 v 8.203 h 1.265 v -1.281 c 0.301,0.5 0.656,0.867 1.063,1.109 0.414,0.25 0.89,0.375 1.422,0.375 0.875,0 1.535,-0.293 1.984,-0.875 0.457,-0.586 0.687,-1.445 0.687,-2.578 z" /><rect
       style="fill:none;stroke-width:0.53299254;stroke:#000000;stroke-opacity:1"
       id="rect4091-7"
       width="63.326622"
       height="52.3531"
       x="157.9422"
       y="-440.5481"
       transform="matrix(1,0,-0.20160101,-0.97946773,0,0)" /><path
       inkscape:connector-curvature="0"
       id="path174"
       style="fill:#000000;fill-opacity:1;fill-rule:nonzero;stroke:none;stroke-width:0.1"
       d="m 249.113,420.258 h 3.188 l 4.906,-19.719 4.891,19.719 h 3.547 l 4.906,-19.719 4.89,19.719 h 3.204 l -5.86,-23.328 h -3.969 l -4.921,20.25 -4.969,-20.25 h -3.969 z" /><path
       inkscape:connector-curvature="0"
       id="path176"
       style="fill:#000000;fill-opacity:1;fill-rule:nonzero;stroke:none;stroke-width:0.1"
       d="m 279.992,401.027 c -0.668,0 -1.199,-0.289 -1.594,-0.859 -0.398,-0.563 -0.593,-1.336 -0.593,-2.313 0,-0.98 0.191,-1.75 0.578,-2.312 0.394,-0.563 0.929,-0.844 1.609,-0.844 0.676,0 1.207,0.281 1.594,0.844 0.394,0.562 0.594,1.332 0.594,2.312 0,0.969 -0.2,1.739 -0.594,2.313 -0.387,0.57 -0.918,0.859 -1.594,0.859 z m 0,1.141 c 1.094,0 1.953,-0.387 2.578,-1.156 0.625,-0.762 0.938,-1.813 0.938,-3.157 0,-1.343 -0.313,-2.402 -0.938,-3.171 -0.625,-0.762 -1.484,-1.141 -2.578,-1.141 -1.094,0 -1.953,0.379 -2.578,1.141 -0.625,0.769 -0.937,1.828 -0.937,3.171 0,1.344 0.312,2.395 0.937,3.157 0.625,0.769 1.484,1.156 2.578,1.156 z" /><path
       inkscape:connector-curvature="0"
       id="path178"
       style="fill:#000000;fill-opacity:1;fill-rule:nonzero;stroke:none;stroke-width:0.1"
       d="m 285.25,396.996 v 4.969 h 1.266 v -4.922 c 0,-0.773 0.14,-1.355 0.422,-1.75 0.281,-0.387 0.703,-0.578 1.265,-0.578 0.676,0 1.211,0.226 1.609,0.687 0.395,0.469 0.594,1.102 0.594,1.907 v 4.656 h 1.266 v -8.203 h -1.266 v 1.265 c -0.304,-0.5 -0.656,-0.875 -1.062,-1.125 -0.406,-0.238 -0.875,-0.359 -1.406,-0.359 -0.876,0 -1.543,0.289 -2,0.875 -0.461,0.594 -0.688,1.453 -0.688,2.578 z" /><path
       inkscape:connector-curvature="0"
       id="path180"
       style="fill:#000000;fill-opacity:1;fill-rule:nonzero;stroke:none;stroke-width:0.1"
       d="m 295.293,404.293 v -2.328 h 2.594 v -1.047 h -2.594 v -4.453 c 0,-0.668 0.082,-1.102 0.25,-1.297 0.176,-0.188 0.523,-0.281 1.047,-0.281 h 1.297 v -1.125 h -1.297 c -0.969,0 -1.641,0.191 -2.016,0.578 -0.367,0.394 -0.547,1.101 -0.547,2.125 v 4.453 h -0.922 v 1.047 h 0.922 v 2.328 z" /><path
       inkscape:connector-curvature="0"
       id="path182"
       style="fill:#000000;fill-opacity:1;fill-rule:nonzero;stroke:none;stroke-width:0.1"
       d="m 581.82,603.773 c -0.625,-0.007 -1.156,0.215 -1.605,0.676 -0.449,0.461 -0.68,0.973 -0.688,1.543 0,0.598 0.223,1.125 0.657,1.582 0.437,0.453 0.968,0.684 1.593,0.692 0.637,0.011 1.176,-0.211 1.606,-0.664 0.437,-0.457 0.66,-0.985 0.66,-1.582 0.004,-0.571 -0.203,-1.082 -0.633,-1.543 -0.422,-0.457 -0.953,-0.692 -1.59,-0.704 z" /><path
       inkscape:connector-curvature="0"
       id="path184"
       style="fill:#000000;fill-opacity:1;fill-rule:nonzero;stroke:none;stroke-width:0.1"
       d="m 581.887,596.629 c -0.621,-0.008 -1.157,0.219 -1.606,0.676 -0.445,0.461 -0.676,0.972 -0.687,1.543 0,0.597 0.222,1.125 0.66,1.582 0.437,0.453 0.969,0.683 1.59,0.691 0.636,0.008 1.176,-0.211 1.605,-0.66 0.438,-0.461 0.66,-0.988 0.66,-1.586 0.008,-0.57 -0.199,-1.082 -0.632,-1.543 -0.422,-0.457 -0.954,-0.691 -1.59,-0.703 z" /><path
       inkscape:connector-curvature="0"
       id="path186"
       style="fill:#000000;fill-opacity:1;fill-rule:nonzero;stroke:none;stroke-width:0.1"
       d="m 581.957,589.48 c -0.625,-0.007 -1.16,0.219 -1.605,0.676 -0.45,0.461 -0.68,0.973 -0.688,1.543 0,0.602 0.219,1.125 0.656,1.586 0.438,0.449 0.969,0.68 1.594,0.688 0.637,0.011 1.176,-0.211 1.606,-0.661 0.437,-0.457 0.656,-0.984 0.656,-1.585 0.008,-0.567 -0.199,-1.082 -0.629,-1.543 -0.422,-0.457 -0.953,-0.692 -1.59,-0.704 z" /><path
       inkscape:connector-curvature="0"
       id="path188"
       style="fill:#000000;fill-opacity:1;fill-rule:nonzero;stroke:none;stroke-width:0.1"
       d="m 581.887,197.895 c -0.621,-0.008 -1.157,0.214 -1.606,0.671 -0.445,0.465 -0.676,0.977 -0.687,1.547 0,0.598 0.222,1.125 0.66,1.582 0.437,0.453 0.969,0.684 1.59,0.692 0.636,0.008 1.176,-0.211 1.605,-0.664 0.438,-0.457 0.66,-0.985 0.66,-1.582 0.008,-0.571 -0.199,-1.082 -0.629,-1.547 -0.425,-0.457 -0.953,-0.692 -1.593,-0.699 z" /><path
       inkscape:connector-curvature="0"
       id="path190"
       style="fill:#000000;fill-opacity:1;fill-rule:nonzero;stroke:none;stroke-width:0.1"
       d="m 581.957,190.75 c -0.625,-0.008 -1.16,0.215 -1.605,0.672 -0.45,0.465 -0.68,0.976 -0.688,1.547 0,0.597 0.219,1.125 0.656,1.582 0.438,0.453 0.969,0.683 1.594,0.691 0.637,0.008 1.172,-0.211 1.606,-0.664 0.437,-0.457 0.656,-0.984 0.656,-1.582 0.008,-0.57 -0.199,-1.082 -0.629,-1.543 -0.422,-0.461 -0.953,-0.695 -1.59,-0.703 z" /><path
       inkscape:connector-curvature="0"
       id="path192"
       style="fill:#000000;fill-opacity:1;fill-rule:nonzero;stroke:none;stroke-width:0.1"
       d="m 582.023,183.602 c -0.625,-0.008 -1.156,0.214 -1.605,0.675 -0.445,0.461 -0.676,0.973 -0.688,1.543 0,0.598 0.223,1.125 0.661,1.582 0.437,0.453 0.968,0.684 1.589,0.692 0.637,0.008 1.176,-0.211 1.606,-0.664 0.437,-0.457 0.66,-0.985 0.66,-1.582 0.008,-0.571 -0.203,-1.082 -0.633,-1.543 -0.422,-0.457 -0.953,-0.692 -1.59,-0.703 z" /><path
       inkscape:connector-curvature="0"
       id="path194"
       style="fill:#000000;fill-opacity:1;fill-rule:nonzero;stroke:none;stroke-width:0.1"
       d="m 518.797,782.809 v -4.969 h 5.922 v -2.235 h -5.922 v -9.5 c 0,-1.429 0.191,-2.343 0.578,-2.75 0.395,-0.406 1.191,-0.609 2.391,-0.609 h 2.953 v -2.406 h -2.953 c -2.219,0 -3.75,0.41 -4.594,1.234 -0.844,0.832 -1.266,2.344 -1.266,4.531 v 9.5 h -2.109 v 2.235 h 2.109 v 4.969 z" /><path
       inkscape:connector-curvature="0"
       id="path196"
       style="fill:#000000;fill-opacity:1;fill-rule:nonzero;stroke:none;stroke-width:0.1"
       d="m 586.371,397.219 c 0,-2.375 -1.926,-4.301 -4.301,-4.301 -2.379,0 -4.304,1.926 -4.304,4.301 0,2.375 1.925,4.301 4.304,4.301 2.375,0 4.301,-1.926 4.301,-4.301 z" /><path
       inkscape:connector-curvature="0"
       id="path198"
       style="fill:#000000;fill-opacity:1;fill-rule:nonzero;stroke:none;stroke-width:0.1"
       d="m 530.402,764.645 h 1.61016 v -9.84375 H 530.402 Z m 0,3.828 h 1.61016 v -2.04688 H 530.402 Z" /><path
       inkscape:connector-curvature="0"
       id="path200"
       style="fill:#000000;fill-opacity:1;fill-rule:nonzero;stroke:none;stroke-width:0.1"
       d="m 534.453,759.004 h 4.73398 v 1.45313 H 534.453 Z" /><path
       inkscape:connector-curvature="0"
       id="path202"
       style="fill:#000000;fill-opacity:1;fill-rule:nonzero;stroke:none;stroke-width:0.1"
       d="m 541.578,768.473 h 1.625 v -8.078 l 4.828,4.25 h 2.063 l -5.219,-4.61 5.437,-5.234 h -2.109 l -5,4.812 v -4.812 h -1.625 z" /><path
       inkscape:connector-curvature="0"
       id="path204"
       style="fill:#000000;fill-opacity:1;fill-rule:nonzero;stroke:none;stroke-width:0.1"
       d="m 37.891,584.598 h 1.60898 v -9.84414 H 37.891 Z m 0,3.828 h 1.60898 v -2.04727 H 37.891 Z" /><path
       inkscape:connector-curvature="0"
       id="path206"
       style="fill:#000000;fill-opacity:1;fill-rule:nonzero;stroke:none;stroke-width:0.1"
       d="m 518.598,589.051 v -4.969 h 5.922 v -2.234 h -5.922 v -9.5 c 0,-1.43 0.191,-2.344 0.578,-2.75 0.394,-0.407 1.191,-0.61 2.39,-0.61 h 2.954 v -2.406 h -2.954 c -2.218,0 -3.75,0.41 -4.593,1.234 -0.844,0.832 -1.266,2.344 -1.266,4.532 v 9.5 h -2.109 v 2.234 h 2.109 v 4.969 z" /><path
       inkscape:connector-curvature="0"
       id="path208"
       style="fill:#000000;fill-opacity:1;fill-rule:nonzero;stroke:none;stroke-width:0.1"
       d="m 530.203,570.887 h 1.60898 v -9.84414 H 530.203 Z m 0,3.828 h 1.60898 v -2.04727 H 530.203 Z" /><path
       inkscape:connector-curvature="0"
       id="path210"
       style="fill:#000000;fill-opacity:1;fill-rule:nonzero;stroke:none;stroke-width:0.1"
       d="m 534.258,565.246 h 4.73398 v 1.45273 H 534.258 Z" /><path
       inkscape:connector-curvature="0"
       id="path212"
       style="fill:#000000;fill-opacity:1;fill-rule:nonzero;stroke:none;stroke-width:0.1"
       d="m 541.973,562.543 h 2.906 v 10 l -3.156,-0.625 v 1.609 l 3.125,0.641 h 1.781 v -11.625 h 2.906 v -1.5 h -7.562 z" /><path
       inkscape:connector-curvature="0"
       id="path214"
       style="fill:#000000;fill-opacity:1;fill-rule:nonzero;stroke:none;stroke-width:0.1"
       d="m 519.785,242.594 v -4.969 h 5.922 v -2.234 h -5.922 v -9.5 c 0,-1.43 0.192,-2.344 0.578,-2.75 0.395,-0.407 1.192,-0.61 2.391,-0.61 h 2.953 v -2.406 h -2.953 c -2.219,0 -3.75,0.41 -4.594,1.234 -0.844,0.832 -1.265,2.344 -1.265,4.532 v 9.5 h -2.11 v 2.234 h 2.11 v 4.969 z" /><path
       inkscape:connector-curvature="0"
       id="path216"
       style="fill:#000000;fill-opacity:1;fill-rule:nonzero;stroke:none;stroke-width:0.1"
       d="m 531.391,224.426 h 1.60898 v -9.84414 H 531.391 Z m 0,3.828 h 1.60898 v -2.04688 H 531.391 Z" /><path
       inkscape:connector-curvature="0"
       id="path218"
       style="fill:#000000;fill-opacity:1;fill-rule:nonzero;stroke:none;stroke-width:0.1"
       d="m 542.848,225.863 v -4.89 h 4.89 v -1.5 h -4.89 v -4.891 h -1.485 v 4.891 h -4.89 v 1.5 h 4.89 v 4.89 z" /><path
       inkscape:connector-curvature="0"
       id="path220"
       style="fill:#000000;fill-opacity:1;fill-rule:nonzero;stroke:none;stroke-width:0.1"
       d="m 551.543,216.082 h 2.906 v 10 l -3.156,-0.625 v 1.609 l 3.125,0.641 h 1.781 v -11.625 h 2.906 v -1.5 h -7.562 z" /><path
       inkscape:connector-curvature="0"
       id="path222"
       style="fill:#000000;fill-opacity:1;fill-rule:nonzero;stroke:none;stroke-width:0.1"
       d="M 520.973,33.1762 V 28.207 h 5.922 v -2.234 h -5.922 v -9.5 c 0,-1.43 0.191,-2.3441 0.578,-2.75 0.394,-0.407 1.191,-0.6101 2.39,-0.6101 h 2.954 V 10.707 h -2.954 c -2.218,0 -3.75,0.4102 -4.593,1.234 -0.844,0.832 -1.266,2.3442 -1.266,4.532 v 9.5 h -2.109 v 2.234 h 2.109 v 4.9692 z" /><path
       inkscape:connector-curvature="0"
       id="path224"
       style="fill:#000000;fill-opacity:1;fill-rule:nonzero;stroke:none;stroke-width:0.1"
       d="m 532.578,15.0121 h 1.60977 V 5.16796 H 532.578 Z m 0,3.8277 h 1.60977 V 16.79292 H 532.578 Z" /><path
       inkscape:connector-curvature="0"
       id="path226"
       style="fill:#000000;fill-opacity:1;fill-rule:nonzero;stroke:none;stroke-width:0.1"
       d="M 544.035,16.4488 V 11.559 h 4.891 v -1.5 h -4.891 V 5.16797 h -1.484 V 10.059 h -4.891 v 1.5 h 4.891 v 4.8898 z" /><path
       inkscape:connector-curvature="0"
       id="path228"
       style="fill:#000000;fill-opacity:1;fill-rule:nonzero;stroke:none;stroke-width:0.1"
       d="m 552.137,18.8398 h 1.625 v -8.0777 l 4.828,4.25 h 2.062 l -5.218,-4.6101 5.437,-5.23403 h -2.109 l -5,4.81211 V 5.16797 h -1.625 z" /><path
       inkscape:connector-curvature="0"
       id="path146-3"
       style="fill:#1a1a1a;fill-opacity:1;fill-rule:nonzero;stroke:none;stroke-width:0.02184931"
       d="m 58.665498,393.94927 -0.0425,7.83549 -0.0405,7.83484 8.03187,-3.88738 8.03302,-3.88716 z" /><path
       style="fill:none;stroke:#000000;stroke-width:3.82500005;stroke-linecap:butt;stroke-linejoin:miter;stroke-miterlimit:4;stroke-dasharray:none;stroke-opacity:1;marker-end:url(#Arrow2Mend)"
       d="m 338.52123,417.28602 171.77438,75.41314"
       id="path5230"
       inkscape:connector-curvature="0"
       sodipodi:nodetypes="cc" /><path
       style="fill:none;stroke:#000000;stroke-width:3.82500005;stroke-linecap:butt;stroke-linejoin:miter;stroke-miterlimit:4;stroke-dasharray:none;stroke-opacity:1;marker-end:url(#Arrow2Mend-5)"
       d="m 338.47174,391.69905 175.964,-83.79238"
       id="path5230-5"
       inkscape:connector-curvature="0"
       sodipodi:nodetypes="cc" /><path
       style="fill:none;stroke:#000000;stroke-width:3.82500005;stroke-linecap:butt;stroke-linejoin:miter;stroke-miterlimit:4;stroke-dasharray:none;stroke-opacity:1;marker-end:url(#Arrow2Mend-6)"
       d="M 327.74116,443.34525 486.9467,649.47451"
       id="path5230-9"
       inkscape:connector-curvature="0"
       sodipodi:nodetypes="cc" /><path
       style="fill:none;stroke:#000000;stroke-width:3.82500005;stroke-linecap:butt;stroke-linejoin:miter;stroke-miterlimit:4;stroke-dasharray:none;stroke-opacity:1;marker-end:url(#Arrow2Mend-6-1)"
       d="M 327.69318,367.36278 485.22287,128.55449"
       id="path5230-9-7"
       inkscape:connector-curvature="0"
       sodipodi:nodetypes="cc" /></g></svg>