<?xml version="1.0" encoding="UTF-8" standalone="no"?>
<!-- Created with Inkscape (http://www.inkscape.org/) -->

<svg
   xmlns:dc="http://purl.org/dc/elements/1.1/"
   xmlns:cc="http://creativecommons.org/ns#"
   xmlns:rdf="http://www.w3.org/1999/02/22-rdf-syntax-ns#"
   xmlns:svg="http://www.w3.org/2000/svg"
   xmlns="http://www.w3.org/2000/svg"
   xmlns:sodipodi="http://sodipodi.sourceforge.net/DTD/sodipodi-0.dtd"
   xmlns:inkscape="http://www.inkscape.org/namespaces/inkscape"
   version="1.1"
   id="svg2"
   xml:space="preserve"
   width="593.33331"
   height="1054.6667"
   viewBox="0 0 593.33331 1054.6667"
   sodipodi:docname="pvbow-eps-converted-to.svg"
   inkscape:version="0.92.3 (2405546, 2018-03-11)"><metadata
     id="metadata8"><rdf:RDF><cc:Work
         rdf:about=""><dc:format>image/svg+xml</dc:format><dc:type
           rdf:resource="http://purl.org/dc/dcmitype/StillImage" /><dc:title></dc:title></cc:Work></rdf:RDF></metadata><defs
     id="defs6" /><sodipodi:namedview
     pagecolor="#ffffff"
     bordercolor="#666666"
     borderopacity="1"
     objecttolerance="10"
     gridtolerance="10"
     guidetolerance="10"
     inkscape:pageopacity="0"
     inkscape:pageshadow="2"
     inkscape:window-width="2278"
     inkscape:window-height="1124"
     id="namedview4"
     showgrid="false"
     inkscape:zoom="0.63290969"
     inkscape:cx="22.535918"
     inkscape:cy="594.36728"
     inkscape:window-x="0"
     inkscape:window-y="283"
     inkscape:window-maximized="0"
     inkscape:current-layer="g10" /><g
     id="g10"
     inkscape:groupmode="layer"
     inkscape:label="pvbow-eps-converted-to"
     transform="matrix(1.3333333,0,0,-1.3333333,0,1054.6667)"><g
       id="g12"
       transform="scale(0.1)"><path
         d="m 1743.01,2578.75 h 516.84 V 5598.4 h -516.84 z"
         style="fill:#ffffff;fill-opacity:1;fill-rule:nonzero;stroke:none"
         id="path14"
         inkscape:connector-curvature="0" /><path
         d="m 1743.01,2578.75 h 516.84 V 5598.4 h -516.84 z"
         style="fill:none;stroke:#000000;stroke-width:16.63360023;stroke-linecap:round;stroke-linejoin:round;stroke-miterlimit:4;stroke-dasharray:66.5345, 66.5345;stroke-dashoffset:0;stroke-opacity:1"
         id="path16"
         inkscape:connector-curvature="0" /><path
         d="m 2172.85,5328.59 c 0,-97.85 -79.3,-177.14 -177.15,-177.14 -97.81,0 -177.15,79.29 -177.15,177.14 0,97.82 79.34,177.15 177.15,177.15 97.85,0 177.15,-79.33 177.15,-177.15 z"
         style="fill:#000000;fill-opacity:1;fill-rule:nonzero;stroke:none"
         id="path18"
         inkscape:connector-curvature="0" /><path
         d="m 2178.55,4882.85 c 0,-97.81 -79.29,-177.11 -177.1,-177.11 -97.86,0 -177.15,79.3 -177.15,177.11 0,97.85 79.29,177.15 177.15,177.15 97.81,0 177.1,-79.3 177.1,-177.15 z"
         style="fill:#000000;fill-opacity:1;fill-rule:nonzero;stroke:none"
         id="path20"
         inkscape:connector-curvature="0" /><path
         d="m 2195.7,4425.74 c 0,-97.85 -79.29,-177.15 -177.15,-177.15 -97.81,0 -177.1,79.3 -177.1,177.15 0,97.81 79.29,177.11 177.1,177.11 97.86,0 177.15,-79.3 177.15,-177.11 z"
         style="fill:#000000;fill-opacity:1;fill-rule:nonzero;stroke:none"
         id="path22"
         inkscape:connector-curvature="0" /><path
         d="m 2184.3,3751.45 c 0,-97.86 -79.34,-177.15 -177.15,-177.15 -97.85,0 -177.15,79.29 -177.15,177.15 0,97.81 79.3,177.14 177.15,177.14 97.81,0 177.15,-79.33 177.15,-177.14 z"
         style="fill:#000000;fill-opacity:1;fill-rule:nonzero;stroke:none"
         id="path24"
         inkscape:connector-curvature="0" /><path
         d="m 2190,3288.59 c 0,-97.85 -79.3,-177.14 -177.15,-177.14 -97.81,0 -177.15,79.29 -177.15,177.14 0,97.82 79.34,177.15 177.15,177.15 97.85,0 177.15,-79.33 177.15,-177.15 z"
         style="fill:#000000;fill-opacity:1;fill-rule:nonzero;stroke:none"
         id="path26"
         inkscape:connector-curvature="0" /><path
         d="m 2195.7,2825.74 c 0,-97.85 -79.29,-177.15 -177.15,-177.15 -97.81,0 -177.1,79.3 -177.1,177.15 0,97.81 79.29,177.11 177.1,177.11 97.86,0 177.15,-79.3 177.15,-177.11 z"
         style="fill:#000000;fill-opacity:1;fill-rule:nonzero;stroke:none"
         id="path28"
         inkscape:connector-curvature="0" /><path
         d="m 1990.59,4128.71 c -5.86,-0.08 -10.9,2.11 -15.16,6.56 -4.14,4.5 -6.25,9.53 -6.25,15.16 -0.08,5.86 1.95,11.02 6.09,15.47 4.14,4.49 9.14,6.8 15,6.87 6.02,0 11.1,-2.18 15.16,-6.56 4.06,-4.45 6.13,-9.61 6.25,-15.47 0,-5.62 -2.03,-10.66 -6.09,-15.15 -3.99,-4.57 -8.99,-6.88 -15,-6.88 z"
         style="fill:#000000;fill-opacity:1;fill-rule:nonzero;stroke:none"
         id="path30"
         inkscape:connector-curvature="0" /><path
         d="m 1991.21,4059.34 c -5.86,-0.08 -10.9,2.11 -15.16,6.56 -4.14,4.49 -6.25,9.53 -6.25,15.15 -0.07,5.86 1.96,11.02 6.1,15.47 4.14,4.5 9.14,6.8 15,6.88 6.01,0 11.09,-2.19 15.15,-6.56 4.07,-4.46 6.14,-9.61 6.25,-15.47 0,-5.63 -2.03,-10.67 -6.09,-15.16 -3.98,-4.57 -8.98,-6.87 -15,-6.87 z"
         style="fill:#000000;fill-opacity:1;fill-rule:nonzero;stroke:none"
         id="path32"
         inkscape:connector-curvature="0" /><path
         d="m 1991.84,3989.96 c -5.86,-0.08 -10.9,2.11 -15.16,6.56 -4.14,4.5 -6.25,9.53 -6.25,15.16 -0.08,5.86 1.95,11.02 6.09,15.47 4.14,4.49 9.14,6.8 15,6.87 6.02,0 11.1,-2.18 15.16,-6.56 4.06,-4.45 6.13,-9.61 6.25,-15.47 0,-5.62 -2.03,-10.66 -6.09,-15.15 -3.99,-4.57 -8.99,-6.88 -15,-6.88 z"
         style="fill:#000000;fill-opacity:1;fill-rule:nonzero;stroke:none"
         id="path34"
         inkscape:connector-curvature="0" /><path
         d="m 4116.8,6106.8 h 307.27 V 7902.11 H 4116.8 Z"
         style="fill:#ffffff;fill-opacity:1;fill-rule:nonzero;stroke:none"
         id="path36"
         inkscape:connector-curvature="0" /><path
         d="m 4131.64,6100.86 h 307.27 v 1795.31 h -307.27 z"
         style="fill:none;stroke:#000000;stroke-width:9.88924026;stroke-linecap:round;stroke-linejoin:round;stroke-miterlimit:4;stroke-dasharray:39.557, 39.557;stroke-dashoffset:0;stroke-opacity:1"
         id="path38"
         inkscape:connector-curvature="0" /><path
         d="m 4387.19,7735.74 c 0,-58.16 -47.15,-105.31 -105.31,-105.31 -58.17,0 -105.32,47.15 -105.32,105.31 0,58.17 47.15,105.31 105.32,105.31 58.16,0 105.31,-47.14 105.31,-105.31 z"
         style="fill:#cccccc;fill-opacity:1;fill-rule:nonzero;stroke:none"
         id="path40"
         inkscape:connector-curvature="0" /><path
         d="m 4390.59,7470.74 c 0,-58.16 -47.15,-105.31 -105.32,-105.31 -58.16,0 -105.31,47.15 -105.31,105.31 0,58.17 47.15,105.31 105.31,105.31 58.17,0 105.32,-47.14 105.32,-105.31 z"
         style="fill:#cccccc;fill-opacity:1;fill-rule:nonzero;stroke:none"
         id="path42"
         inkscape:connector-curvature="0" /><path
         d="m 4400.78,7198.95 c 0,-58.17 -47.15,-105.32 -105.31,-105.32 -58.17,0 -105.31,47.15 -105.31,105.32 0,58.16 47.14,105.31 105.31,105.31 58.16,0 105.31,-47.15 105.31,-105.31 z"
         style="fill:#000000;fill-opacity:1;fill-rule:nonzero;stroke:none"
         id="path44"
         inkscape:connector-curvature="0" /><path
         d="m 4393.98,6798.09 c 0,-58.17 -47.14,-105.36 -105.31,-105.36 -58.16,0 -105.31,47.19 -105.31,105.36 0,58.16 47.15,105.31 105.31,105.31 58.17,0 105.31,-47.15 105.31,-105.31 z"
         style="fill:#cccccc;fill-opacity:1;fill-rule:nonzero;stroke:none"
         id="path46"
         inkscape:connector-curvature="0" /><path
         d="m 4397.38,6522.89 c 0,-58.16 -47.15,-105.31 -105.31,-105.31 -58.16,0 -105.31,47.15 -105.31,105.31 0,58.16 47.15,105.31 105.31,105.31 58.16,0 105.31,-47.15 105.31,-105.31 z"
         style="fill:#cccccc;fill-opacity:1;fill-rule:nonzero;stroke:none"
         id="path48"
         inkscape:connector-curvature="0" /><path
         d="m 4400.78,6247.7 c 0,-58.17 -47.15,-105.32 -105.31,-105.32 -58.17,0 -105.31,47.15 -105.31,105.32 0,58.16 47.14,105.31 105.31,105.31 58.16,0 105.31,-47.15 105.31,-105.31 z"
         style="fill:#cccccc;fill-opacity:1;fill-rule:nonzero;stroke:none"
         id="path50"
         inkscape:connector-curvature="0" /><path
         d="m 4278.79,7022.46 c -3.44,-0.08 -6.41,1.21 -8.91,3.91 -2.5,2.61 -3.75,5.58 -3.75,8.9 0,3.44 1.21,6.53 3.6,9.22 2.38,2.62 5.31,3.99 8.75,4.06 3.63,0 6.64,-1.28 9.06,-3.9 2.5,-2.7 3.75,-5.78 3.75,-9.22 0,-3.32 -1.21,-6.29 -3.59,-8.91 -2.31,-2.69 -5.28,-4.06 -8.91,-4.06 z"
         style="fill:#000000;fill-opacity:1;fill-rule:nonzero;stroke:none"
         id="path52"
         inkscape:connector-curvature="0" /><path
         d="m 4279.14,6981.21 c -3.44,-0.08 -6.41,1.21 -8.91,3.91 -2.5,2.61 -3.75,5.58 -3.75,8.9 0,3.44 1.22,6.53 3.6,9.22 2.38,2.62 5.31,3.99 8.75,4.06 3.63,0 6.64,-1.28 9.06,-3.9 2.5,-2.7 3.75,-5.78 3.75,-9.22 0,-3.32 -1.21,-6.29 -3.59,-8.91 -2.31,-2.69 -5.28,-4.06 -8.91,-4.06 z"
         style="fill:#000000;fill-opacity:1;fill-rule:nonzero;stroke:none"
         id="path54"
         inkscape:connector-curvature="0" /><path
         d="m 4279.53,6939.96 c -3.44,-0.08 -6.41,1.21 -8.91,3.91 -2.5,2.61 -3.74,5.58 -3.74,8.9 0,3.44 1.21,6.53 3.59,9.22 2.38,2.62 5.31,3.99 8.75,4.06 3.63,0 6.64,-1.28 9.06,-3.9 2.5,-2.7 3.75,-5.78 3.75,-9.22 0,-3.32 -1.21,-6.29 -3.59,-8.91 -2.31,-2.69 -5.28,-4.06 -8.91,-4.06 z"
         style="fill:#000000;fill-opacity:1;fill-rule:nonzero;stroke:none"
         id="path56"
         inkscape:connector-curvature="0" /><path
         d="m 4122.07,4150.94 h 307.27 v 1795.27 h -307.27 z"
         style="fill:#ffffff;fill-opacity:1;fill-rule:nonzero;stroke:none"
         id="path58"
         inkscape:connector-curvature="0" /><path
         d="m 4130.98,4067.97 h 307.27 v 1795.27 h -307.27 z"
         style="fill:none;stroke:#000000;stroke-width:9.88924026;stroke-linecap:round;stroke-linejoin:round;stroke-miterlimit:4;stroke-dasharray:39.557, 39.557;stroke-dashoffset:0;stroke-opacity:1"
         id="path60"
         inkscape:connector-curvature="0" /><path
         d="m 4386.52,5702.85 c 0,-58.2 -47.14,-105.35 -105.31,-105.35 -58.16,0 -105.31,47.15 -105.31,105.35 0,58.17 47.15,105.31 105.31,105.31 58.17,0 105.31,-47.14 105.31,-105.31 z"
         style="fill:#cccccc;fill-opacity:1;fill-rule:nonzero;stroke:none"
         id="path62"
         inkscape:connector-curvature="0" /><path
         d="m 4389.92,5437.85 c 0,-58.16 -47.15,-105.31 -105.31,-105.31 -58.16,0 -105.31,47.15 -105.31,105.31 0,58.17 47.15,105.31 105.31,105.31 58.16,0 105.31,-47.14 105.31,-105.31 z"
         style="fill:#000000;fill-opacity:1;fill-rule:nonzero;stroke:none"
         id="path64"
         inkscape:connector-curvature="0" /><path
         d="m 4400.12,5166.05 c 0,-58.16 -47.15,-105.31 -105.32,-105.31 -58.16,0 -105.31,47.15 -105.31,105.31 0,58.17 47.15,105.32 105.31,105.32 58.17,0 105.32,-47.15 105.32,-105.32 z"
         style="fill:#cccccc;fill-opacity:1;fill-rule:nonzero;stroke:none"
         id="path66"
         inkscape:connector-curvature="0" /><path
         d="m 4393.32,4765.16 c 0,-58.17 -47.15,-105.32 -105.31,-105.32 -58.17,0 -105.31,47.15 -105.31,105.32 0,58.16 47.14,105.31 105.31,105.31 58.16,0 105.31,-47.15 105.31,-105.31 z"
         style="fill:#cccccc;fill-opacity:1;fill-rule:nonzero;stroke:none"
         id="path68"
         inkscape:connector-curvature="0" /><path
         d="m 4396.72,4490 c 0,-58.16 -47.15,-105.35 -105.31,-105.35 -58.17,0 -105.32,47.19 -105.32,105.35 0,58.16 47.15,105.31 105.32,105.31 58.16,0 105.31,-47.15 105.31,-105.31 z"
         style="fill:#cccccc;fill-opacity:1;fill-rule:nonzero;stroke:none"
         id="path70"
         inkscape:connector-curvature="0" /><path
         d="m 4400.12,4214.8 c 0,-58.16 -47.15,-105.31 -105.32,-105.31 -58.16,0 -105.31,47.15 -105.31,105.31 0,58.17 47.15,105.32 105.31,105.32 58.17,0 105.32,-47.15 105.32,-105.32 z"
         style="fill:#cccccc;fill-opacity:1;fill-rule:nonzero;stroke:none"
         id="path72"
         inkscape:connector-curvature="0" /><path
         d="m 4278.12,4989.57 c -3.43,-0.08 -6.4,1.21 -8.9,3.91 -2.5,2.61 -3.75,5.58 -3.75,8.9 0,3.44 1.21,6.53 3.59,9.22 2.39,2.62 5.32,3.99 8.75,4.06 3.64,0 6.64,-1.28 9.07,-3.9 2.5,-2.7 3.74,-5.78 3.74,-9.22 0,-3.32 -1.21,-6.29 -3.59,-8.91 -2.3,-2.69 -5.27,-4.06 -8.91,-4.06 z"
         style="fill:#000000;fill-opacity:1;fill-rule:nonzero;stroke:none"
         id="path74"
         inkscape:connector-curvature="0" /><path
         d="m 4278.52,4948.32 c -3.44,-0.08 -6.41,1.21 -8.91,3.91 -2.5,2.61 -3.75,5.58 -3.75,8.9 0,3.44 1.21,6.53 3.59,9.22 2.39,2.62 5.32,3.99 8.75,4.06 3.64,0 6.64,-1.29 9.07,-3.9 2.5,-2.7 3.75,-5.78 3.75,-9.22 0,-3.32 -1.22,-6.29 -3.6,-8.91 -2.3,-2.69 -5.27,-4.06 -8.9,-4.06 z"
         style="fill:#000000;fill-opacity:1;fill-rule:nonzero;stroke:none"
         id="path76"
         inkscape:connector-curvature="0" /><path
         d="m 4278.87,4907.07 c -3.44,-0.08 -6.41,1.21 -8.91,3.91 -2.5,2.61 -3.75,5.58 -3.75,8.9 0,3.44 1.21,6.53 3.59,9.22 2.39,2.62 5.32,3.99 8.75,4.06 3.64,0 6.65,-1.28 9.07,-3.9 2.5,-2.7 3.75,-5.78 3.75,-9.22 0,-3.32 -1.21,-6.29 -3.6,-8.91 -2.3,-2.69 -5.27,-4.06 -8.9,-4.06 z"
         style="fill:#000000;fill-opacity:1;fill-rule:nonzero;stroke:none"
         id="path78"
         inkscape:connector-curvature="0" /><path
         d="m 4133.52,2025.24 h 307.27 v 1795.27 h -307.27 z"
         style="fill:#ffffff;fill-opacity:1;fill-rule:nonzero;stroke:none"
         id="path80"
         inkscape:connector-curvature="0" /><path
         d="m 4133.52,2073.25 h 307.27 v 1795.27 h -307.27 z"
         style="fill:none;stroke:#000000;stroke-width:9.88924026;stroke-linecap:round;stroke-linejoin:round;stroke-miterlimit:4;stroke-dasharray:39.557, 39.557;stroke-dashoffset:0;stroke-opacity:1"
         id="path82"
         inkscape:connector-curvature="0" /><path
         d="m 4389.06,3708.09 c 0,-58.17 -47.15,-105.32 -105.31,-105.32 -58.16,0 -105.31,47.15 -105.31,105.32 0,58.12 47.15,105.31 105.31,105.31 58.16,0 105.31,-47.19 105.31,-105.31 z"
         style="fill:#cccccc;fill-opacity:1;fill-rule:nonzero;stroke:none"
         id="path84"
         inkscape:connector-curvature="0" /><path
         d="m 4392.46,3443.09 c 0,-58.17 -47.15,-105.32 -105.31,-105.32 -58.17,0 -105.31,47.15 -105.31,105.32 0,58.12 47.14,105.35 105.31,105.35 58.16,0 105.31,-47.23 105.31,-105.35 z"
         style="fill:#cccccc;fill-opacity:1;fill-rule:nonzero;stroke:none"
         id="path86"
         inkscape:connector-curvature="0" /><path
         d="m 4402.66,3171.33 c 0,-58.17 -47.15,-105.31 -105.32,-105.31 -58.16,0 -105.31,47.14 -105.31,105.31 0,58.16 47.15,105.27 105.31,105.27 58.17,0 105.32,-47.11 105.32,-105.27 z"
         style="fill:#cccccc;fill-opacity:1;fill-rule:nonzero;stroke:none"
         id="path88"
         inkscape:connector-curvature="0" /><path
         d="m 4395.86,2770.39 c 0,-58.12 -47.15,-105.27 -105.31,-105.27 -58.17,0 -105.32,47.15 -105.32,105.27 0,58.2 47.15,105.35 105.32,105.35 58.16,0 105.31,-47.15 105.31,-105.35 z"
         style="fill:#000000;fill-opacity:1;fill-rule:nonzero;stroke:none"
         id="path90"
         inkscape:connector-curvature="0" /><path
         d="m 4399.26,2495.23 c 0,-58.2 -47.15,-105.31 -105.31,-105.31 -58.17,0 -105.32,47.11 -105.32,105.31 0,58.17 47.15,105.32 105.32,105.32 58.16,0 105.31,-47.15 105.31,-105.32 z"
         style="fill:#cccccc;fill-opacity:1;fill-rule:nonzero;stroke:none"
         id="path92"
         inkscape:connector-curvature="0" /><path
         d="m 4402.66,2220.08 c 0,-58.17 -47.15,-105.35 -105.32,-105.35 -58.16,0 -105.31,47.18 -105.31,105.35 0,58.16 47.15,105.27 105.31,105.27 58.17,0 105.32,-47.11 105.32,-105.27 z"
         style="fill:#cccccc;fill-opacity:1;fill-rule:nonzero;stroke:none"
         id="path94"
         inkscape:connector-curvature="0" /><path
         d="m 4280.66,2994.84 c -3.43,-0.07 -6.4,1.21 -8.9,3.87 -2.5,2.66 -3.75,5.63 -3.75,8.95 0,3.43 1.21,6.48 3.59,9.22 2.38,2.61 5.31,3.98 8.75,4.06 3.63,0 6.64,-1.29 9.06,-3.95 2.5,-2.65 3.75,-5.78 3.75,-9.18 0,-3.32 -1.21,-6.29 -3.59,-8.9 -2.3,-2.74 -5.27,-4.07 -8.91,-4.07 z"
         style="fill:#000000;fill-opacity:1;fill-rule:nonzero;stroke:none"
         id="path96"
         inkscape:connector-curvature="0" /><path
         d="m 4281.02,2953.59 c -3.44,-0.07 -6.41,1.21 -8.91,3.87 -2.5,2.66 -3.75,5.63 -3.75,8.95 0,3.43 1.21,6.48 3.59,9.21 2.39,2.62 5.32,3.99 8.75,4.07 3.64,0 6.64,-1.29 9.07,-3.95 2.5,-2.65 3.75,-5.78 3.75,-9.18 0,-3.32 -1.22,-6.29 -3.6,-8.9 -2.3,-2.74 -5.27,-4.07 -8.9,-4.07 z"
         style="fill:#000000;fill-opacity:1;fill-rule:nonzero;stroke:none"
         id="path98"
         inkscape:connector-curvature="0" /><path
         d="m 4281.41,2912.34 c -3.44,-0.07 -6.41,1.21 -8.91,3.87 -2.5,2.66 -3.75,5.63 -3.75,8.95 0,3.43 1.21,6.48 3.59,9.22 2.39,2.61 5.32,3.98 8.75,4.06 3.64,0 6.64,-1.29 9.07,-3.95 2.5,-2.65 3.75,-5.78 3.75,-9.18 0,-3.32 -1.21,-6.29 -3.6,-8.9 -2.3,-2.74 -5.27,-4.07 -8.9,-4.07 z"
         style="fill:#000000;fill-opacity:1;fill-rule:nonzero;stroke:none"
         id="path100"
         inkscape:connector-curvature="0" /><path
         d="m 4133.52,8.08984 h 307.27 V 1803.3598 h -307.27 z"
         style="fill:#ffffff;fill-opacity:1;fill-rule:nonzero;stroke:none"
         id="path102"
         inkscape:connector-curvature="0" /><path
         d="m 4133.52,8.08984 h 307.27 V 1803.3598 h -307.27 z"
         style="fill:none;stroke:#000000;stroke-width:9.88924026;stroke-linecap:round;stroke-linejoin:round;stroke-miterlimit:4;stroke-dasharray:39.557, 39.557;stroke-dashoffset:0;stroke-opacity:1"
         id="path104"
         inkscape:connector-curvature="0" /><path
         d="m 4389.06,1642.93 c 0,-58.16 -47.15,-105.31 -105.31,-105.31 -58.16,0 -105.31,47.15 -105.31,105.31 0,58.16 47.15,105.31 105.31,105.31 58.16,0 105.31,-47.15 105.31,-105.31 z"
         style="fill:#cccccc;fill-opacity:1;fill-rule:nonzero;stroke:none"
         id="path106"
         inkscape:connector-curvature="0" /><path
         d="m 4392.46,1377.97 c 0,-58.17 -47.15,-105.35 -105.31,-105.35 -58.17,0 -105.31,47.18 -105.31,105.35 0,58.16 47.14,105.31 105.31,105.31 58.16,0 105.31,-47.15 105.31,-105.31 z"
         style="fill:#cccccc;fill-opacity:1;fill-rule:nonzero;stroke:none"
         id="path108"
         inkscape:connector-curvature="0" /><path
         d="m 4402.66,1106.17 c 0,-58.16 -47.15,-105.31 -105.32,-105.31 -58.16,0 -105.31,47.15 -105.31,105.31 0,58.17 47.15,105.31 105.31,105.31 58.17,0 105.32,-47.14 105.32,-105.31 z"
         style="fill:#cccccc;fill-opacity:1;fill-rule:nonzero;stroke:none"
         id="path110"
         inkscape:connector-curvature="0" /><path
         d="m 4395.86,705.27 c 0,-58.161 -47.15,-105.309 -105.31,-105.309 -58.17,0 -105.32,47.148 -105.32,105.309 0,58.171 47.15,105.32 105.32,105.32 58.16,0 105.31,-47.149 105.31,-105.32 z"
         style="fill:#cccccc;fill-opacity:1;fill-rule:nonzero;stroke:none"
         id="path112"
         inkscape:connector-curvature="0" /><path
         d="m 4399.26,430.078 c 0,-58.168 -47.15,-105.308 -105.31,-105.308 -58.17,0 -105.32,47.14 -105.32,105.308 0,58.16 47.15,105.352 105.32,105.352 58.16,0 105.31,-47.192 105.31,-105.352 z"
         style="fill:#000000;fill-opacity:1;fill-rule:nonzero;stroke:none"
         id="path114"
         inkscape:connector-curvature="0" /><path
         d="m 4402.66,154.922 c 0,-58.1603 -47.15,-105.3126 -105.32,-105.3126 -58.16,0 -105.31,47.1523 -105.31,105.3126 0,58.168 47.15,105.308 105.31,105.308 58.17,0 105.32,-47.14 105.32,-105.308 z"
         style="fill:#cccccc;fill-opacity:1;fill-rule:nonzero;stroke:none"
         id="path116"
         inkscape:connector-curvature="0" /><path
         d="m 4280.66,929.691 c -3.43,-0.082 -6.4,1.207 -8.9,3.899 -2.5,2.621 -3.75,5.59 -3.75,8.91 0,3.441 1.21,6.52 3.59,9.219 2.38,2.621 5.31,3.98 8.75,4.062 3.63,0 6.64,-1.293 9.06,-3.902 2.5,-2.699 3.75,-5.789 3.75,-9.219 0,-3.32 -1.21,-6.289 -3.59,-8.91 -2.3,-2.699 -5.27,-4.059 -8.91,-4.059 z"
         style="fill:#000000;fill-opacity:1;fill-rule:nonzero;stroke:none"
         id="path118"
         inkscape:connector-curvature="0" /><path
         d="m 4281.02,888.441 c -3.44,-0.082 -6.41,1.207 -8.91,3.899 -2.5,2.621 -3.75,5.59 -3.75,8.91 0,3.441 1.21,6.52 3.59,9.219 2.39,2.621 5.32,3.98 8.75,4.062 3.64,0 6.64,-1.293 9.07,-3.91 2.5,-2.691 3.75,-5.781 3.75,-9.211 0,-3.32 -1.22,-6.289 -3.6,-8.91 -2.3,-2.699 -5.27,-4.059 -8.9,-4.059 z"
         style="fill:#000000;fill-opacity:1;fill-rule:nonzero;stroke:none"
         id="path120"
         inkscape:connector-curvature="0" /><path
         d="m 4281.41,847.191 c -3.44,-0.082 -6.41,1.207 -8.91,3.899 -2.5,2.621 -3.75,5.59 -3.75,8.91 0,3.441 1.21,6.52 3.59,9.219 2.39,2.621 5.32,3.98 8.75,4.062 3.64,0 6.64,-1.293 9.07,-3.902 2.5,-2.699 3.75,-5.789 3.75,-9.219 0,-3.32 -1.21,-6.289 -3.6,-8.91 -2.3,-2.699 -5.27,-4.059 -8.9,-4.059 z"
         style="fill:#000000;fill-opacity:1;fill-rule:nonzero;stroke:none"
         id="path122"
         inkscape:connector-curvature="0" /><path
         d="m 17.3008,2567.3 h 516.801 V 5586.99 H 17.3008 Z"
         style="fill:#ffffff;fill-opacity:1;fill-rule:nonzero;stroke:none"
         id="path124"
         inkscape:connector-curvature="0" /><path
         d="m 17.3008,2567.3 h 516.801 V 5586.99 H 17.3008 Z"
         style="fill:none;stroke:#000000;stroke-width:16.63360023;stroke-linecap:round;stroke-linejoin:round;stroke-miterlimit:4;stroke-dasharray:66.5345, 66.5345;stroke-dashoffset:0;stroke-opacity:1"
         id="path126"
         inkscape:connector-curvature="0" /><path
         d="M 447.148,5317.15 C 447.148,5219.34 367.852,5140 270,5140 c -97.852,0 -177.1484,79.34 -177.1484,177.15 0,97.85 79.2964,177.15 177.1484,177.15 97.852,0 177.148,-79.3 177.148,-177.15 z"
         style="fill:#000000;fill-opacity:1;fill-rule:nonzero;stroke:none"
         id="path128"
         inkscape:connector-curvature="0" /><path
         d="m 452.852,4871.45 c 0,-97.86 -79.301,-177.15 -177.153,-177.15 -97.808,0 -177.1482,79.29 -177.1482,177.15 0,97.81 79.3402,177.14 177.1482,177.14 97.852,0 177.153,-79.33 177.153,-177.14 z"
         style="fill:#cccccc;fill-opacity:1;fill-rule:nonzero;stroke:none"
         id="path130"
         inkscape:connector-curvature="0" /><path
         d="m 470,4414.3 c 0,-97.85 -79.301,-177.15 -177.148,-177.15 -97.813,0 -177.153,79.3 -177.153,177.15 0,97.81 79.34,177.15 177.153,177.15 97.847,0 177.148,-79.34 177.148,-177.15 z"
         style="fill:#cccccc;fill-opacity:1;fill-rule:nonzero;stroke:none"
         id="path132"
         inkscape:connector-curvature="0" /><path
         d="m 458.551,3740 c 0,-97.81 -79.289,-177.15 -177.102,-177.15 -97.859,0 -177.148,79.34 -177.148,177.15 0,97.85 79.289,177.15 177.148,177.15 97.813,0 177.102,-79.3 177.102,-177.15 z"
         style="fill:#cccccc;fill-opacity:1;fill-rule:nonzero;stroke:none"
         id="path134"
         inkscape:connector-curvature="0" /><path
         d="M 464.301,3277.15 C 464.301,3179.34 384.961,3100 287.148,3100 189.301,3100 110,3179.34 110,3277.15 c 0,97.85 79.301,177.15 177.148,177.15 97.813,0 177.153,-79.3 177.153,-177.15 z"
         style="fill:#cccccc;fill-opacity:1;fill-rule:nonzero;stroke:none"
         id="path136"
         inkscape:connector-curvature="0" /><path
         d="m 470,2814.3 c 0,-97.85 -79.301,-177.15 -177.148,-177.15 -97.813,0 -177.153,79.3 -177.153,177.15 0,97.81 79.34,177.15 177.153,177.15 97.847,0 177.148,-79.34 177.148,-177.15 z"
         style="fill:#cccccc;fill-opacity:1;fill-rule:nonzero;stroke:none"
         id="path138"
         inkscape:connector-curvature="0" /><path
         d="m 264.879,4117.27 c -5.859,-0.08 -10.899,2.11 -15.149,6.56 -4.14,4.49 -6.25,9.53 -6.25,15.15 -0.082,5.86 1.95,11.02 6.09,15.47 4.141,4.5 9.141,6.8 15,6.88 6.02,0 11.09,-2.19 15.16,-6.56 4.059,-4.46 6.129,-9.61 6.25,-15.47 0,-5.63 -2.031,-10.67 -6.101,-15.16 -3.981,-4.57 -8.981,-6.87 -15,-6.87 z"
         style="fill:#000000;fill-opacity:1;fill-rule:nonzero;stroke:none"
         id="path140"
         inkscape:connector-curvature="0" /><path
         d="m 265.512,4047.89 c -5.864,-0.08 -10.903,2.11 -15.16,6.56 -4.141,4.5 -6.25,9.53 -6.25,15.16 -0.082,5.86 1.949,11.01 6.097,15.47 4.141,4.49 9.141,6.8 15,6.87 6.012,0 11.09,-2.18 15.153,-6.56 4.058,-4.45 6.128,-9.61 6.25,-15.47 0,-5.62 -2.032,-10.66 -6.09,-15.15 -3.992,-4.57 -8.992,-6.88 -15,-6.88 z"
         style="fill:#000000;fill-opacity:1;fill-rule:nonzero;stroke:none"
         id="path142"
         inkscape:connector-curvature="0" /><path
         d="m 266.129,3978.52 c -5.859,-0.08 -10.899,2.1 -15.149,6.56 -4.14,4.49 -6.25,9.53 -6.25,15.15 -0.082,5.86 1.95,11.02 6.09,15.47 4.141,4.5 9.141,6.8 15,6.88 6.02,0 11.09,-2.19 15.16,-6.56 4.059,-4.46 6.129,-9.61 6.25,-15.47 0,-5.63 -2.031,-10.67 -6.101,-15.16 -3.981,-4.57 -8.981,-6.87 -15,-6.87 z"
         style="fill:#000000;fill-opacity:1;fill-rule:nonzero;stroke:none"
         id="path144"
         inkscape:connector-curvature="0" /><path
         d="m 2476.5001,3659.5646 -1.879,371.64 -1.789,371.61 354.719,-184.38 354.77,-184.37 z"
         style="fill:#1a1a1a;fill-opacity:1;fill-rule:nonzero;stroke:none"
         id="path146"
         inkscape:connector-curvature="0" /><path
         d="m 3469.65,6100.94 -186.95,236.17 326.05,65.59 z"
         style="fill:#1a1a1a;fill-opacity:1;fill-rule:nonzero;stroke:none"
         id="path148"
         inkscape:connector-curvature="0" /><path
         d="m 2517.27,5586.05 854.64,669.57 31.72,-40.46 -854.65,-669.61 z"
         style="fill:#1a1a1a;fill-opacity:1;fill-rule:nonzero;stroke:none"
         id="path150"
         inkscape:connector-curvature="0" /><path
         d="m 3577.46,4917.19 -186.99,236.17 326.05,65.59 z"
         style="fill:#1a1a1a;fill-opacity:1;fill-rule:nonzero;stroke:none"
         id="path152"
         inkscape:connector-curvature="0" /><path
         d="m 2625.08,4402.27 854.65,669.61 31.72,-40.51 -854.69,-669.57 z"
         style="fill:#1a1a1a;fill-opacity:1;fill-rule:nonzero;stroke:none"
         id="path154"
         inkscape:connector-curvature="0" /><path
         d="m 3415.31,2629.38 189.07,234.53 135.97,-303.52 z"
         style="fill:#1a1a1a;fill-opacity:1;fill-rule:nonzero;stroke:none"
         id="path156"
         inkscape:connector-curvature="0" /><path
         d="m 2702.77,3444.53 841.84,-685.66 -32.5,-39.89 -841.8,685.71 z"
         style="fill:#1a1a1a;fill-opacity:1;fill-rule:nonzero;stroke:none"
         id="path158"
         inkscape:connector-curvature="0" /><path
         d="m 3332.85,1590.82 205.27,220.47 114.03,-312.46 z"
         style="fill:#1a1a1a;fill-opacity:1;fill-rule:nonzero;stroke:none"
         id="path160"
         inkscape:connector-curvature="0" /><path
         d="m 2680.23,2454.69 790.82,-743.91 -35.27,-37.46 -790.78,743.91 z"
         style="fill:#1a1a1a;fill-opacity:1;fill-rule:nonzero;stroke:none"
         id="path162"
         inkscape:connector-curvature="0" /><path
         d="m 180.43,6011.48 v -181.4 h 38.121 c 32.187,0 55.711,7.26 70.629,21.87 15,14.57 22.5,37.58 22.5,69.07 0,31.25 -7.5,54.1 -22.5,68.59 -14.918,14.57 -38.442,21.87 -70.629,21.87 z m -31.559,25.94 h 64.84 c 45.199,0 78.359,-9.45 99.527,-28.28 21.141,-18.75 31.723,-48.12 31.723,-88.12 0,-40.24 -10.621,-69.77 -31.871,-88.6 -21.25,-18.87 -54.379,-28.28 -99.379,-28.28 h -64.84 z"
         style="fill:#000000;fill-opacity:1;fill-rule:nonzero;stroke:none"
         id="path164"
         inkscape:connector-curvature="0" /><path
         d="m 1909.3,5992.11 h 31.56 v -95.63 h 114.69 v 95.63 h 31.56 v -233.28 h -31.56 v 111.09 h -114.69 v -111.09 h -31.56 z"
         style="fill:#000000;fill-opacity:1;fill-rule:nonzero;stroke:none"
         id="path166"
         inkscape:connector-curvature="0" /><path
         d="m 891.559,4200.98 h 31.882 l 49.059,-197.19 48.91,197.19 h 35.47 l 49.06,-197.19 48.9,197.19 h 32.04 l -58.6,-233.28 h -39.69 l -49.21,202.5 -49.689,-202.5 H 950 Z"
         style="fill:#000000;fill-opacity:1;fill-rule:nonzero;stroke:none"
         id="path168"
         inkscape:connector-curvature="0" /><path
         d="m 1174.84,4010.43 h 12.6602 v -82.0313 H 1174.84 Z m 0,31.87 h 12.6602 v -17.0313 H 1174.84 Z"
         style="fill:#000000;fill-opacity:1;fill-rule:nonzero;stroke:none"
         id="path170"
         inkscape:connector-curvature="0" /><path
         d="m 1276.48,3977.93 v -49.53 h -12.65 v 49.06 c 0,7.81 -1.41,13.63 -4.22,17.5 -2.81,3.83 -7.03,5.78 -12.66,5.78 -6.79,0 -12.15,-2.34 -16.09,-7.03 -3.98,-4.61 -5.94,-10.9 -5.94,-18.91 v -46.4 h -12.65 v 82.03 h 12.65 v -12.81 c 3.01,5 6.56,8.67 10.63,11.09 4.14,2.5 8.9,3.75 14.22,3.75 8.75,0 15.35,-2.93 19.84,-8.75 4.57,-5.86 6.87,-14.45 6.87,-25.78 z"
         style="fill:#000000;fill-opacity:1;fill-rule:nonzero;stroke:none"
         id="path172"
         inkscape:connector-curvature="0" /><path
         d="m 2491.13,4202.58 h 31.88 l 49.06,-197.19 48.91,197.19 h 35.47 l 49.06,-197.19 48.9,197.19 h 32.04 l -58.6,-233.28 h -39.69 l -49.21,202.5 -49.69,-202.5 h -39.69 z"
         style="fill:#ffffff;fill-opacity:1;fill-rule:nonzero;stroke:none"
         id="path174"
         inkscape:connector-curvature="0" /><path
         d="m 2799.92,4010.27 c -6.68,0 -11.99,-2.89 -15.94,-8.59 -3.98,-5.63 -5.93,-13.36 -5.93,-23.13 0,-9.8 1.91,-17.5 5.78,-23.12 3.94,-5.63 9.29,-8.44 16.09,-8.44 6.76,0 12.07,2.81 15.94,8.44 3.94,5.62 5.94,13.32 5.94,23.12 0,9.69 -2,17.39 -5.94,23.13 -3.87,5.7 -9.18,8.59 -15.94,8.59 z m 0,11.41 c 10.94,0 19.53,-3.87 25.78,-11.56 6.25,-7.62 9.38,-18.13 9.38,-31.57 0,-13.43 -3.13,-24.02 -9.38,-31.71 -6.25,-7.62 -14.84,-11.41 -25.78,-11.41 -10.94,0 -19.53,3.79 -25.78,11.41 -6.25,7.69 -9.37,18.28 -9.37,31.71 0,13.44 3.12,23.95 9.37,31.57 6.25,7.69 14.84,11.56 25.78,11.56 z"
         style="fill:#ffffff;fill-opacity:1;fill-rule:nonzero;stroke:none"
         id="path176"
         inkscape:connector-curvature="0" /><path
         d="m 2852.5,3969.96 v 49.69 h 12.66 v -49.22 c 0,-7.73 1.4,-13.55 4.22,-17.5 2.81,-3.87 7.03,-5.78 12.65,-5.78 6.76,0 12.11,2.26 16.09,6.87 3.95,4.69 5.94,11.02 5.94,19.07 v 46.56 h 12.66 v -82.03 h -12.66 v 12.65 c -3.04,-5 -6.56,-8.75 -10.62,-11.25 -4.06,-2.38 -8.75,-3.59 -14.06,-3.59 -8.76,0 -15.43,2.89 -20,8.75 -4.61,5.94 -6.88,14.53 -6.88,25.78 z"
         style="fill:#ffffff;fill-opacity:1;fill-rule:nonzero;stroke:none"
         id="path178"
         inkscape:connector-curvature="0" /><path
         d="m 2952.93,4042.93 v -23.28 h 25.94 v -10.47 h -25.94 v -44.53 c 0,-6.68 0.82,-11.02 2.5,-12.97 1.76,-1.88 5.23,-2.81 10.47,-2.81 h 12.97 v -11.25 h -12.97 c -9.69,0 -16.41,1.91 -20.16,5.78 -3.67,3.94 -5.47,11.01 -5.47,21.25 v 44.53 h -9.22 v 10.47 h 9.22 v 23.28 z"
         style="fill:#ffffff;fill-opacity:1;fill-rule:nonzero;stroke:none"
         id="path180"
         inkscape:connector-curvature="0" /><path
         d="m 4288.2,6037.73 c -6.25,-0.07 -11.56,2.15 -16.05,6.76 -4.49,4.61 -6.8,9.73 -6.88,15.43 0,5.98 2.23,11.25 6.57,15.82 4.37,4.53 9.68,6.84 15.93,6.92 6.37,0.11 11.76,-2.11 16.06,-6.64 4.37,-4.57 6.6,-9.85 6.6,-15.82 0.04,-5.71 -2.03,-10.82 -6.33,-15.43 -4.22,-4.57 -9.53,-6.92 -15.9,-7.04 z"
         style="fill:#000000;fill-opacity:1;fill-rule:nonzero;stroke:none"
         id="path182"
         inkscape:connector-curvature="0" /><path
         d="m 4288.87,5966.29 c -6.21,-0.08 -11.57,2.19 -16.06,6.76 -4.45,4.61 -6.76,9.72 -6.87,15.43 0,5.97 2.22,11.25 6.6,15.82 4.37,4.53 9.69,6.83 15.9,6.91 6.36,0.08 11.76,-2.11 16.05,-6.6 4.38,-4.61 6.6,-9.88 6.6,-15.86 0.08,-5.7 -1.99,-10.82 -6.32,-15.43 -4.22,-4.57 -9.54,-6.91 -15.9,-7.03 z"
         style="fill:#000000;fill-opacity:1;fill-rule:nonzero;stroke:none"
         id="path184"
         inkscape:connector-curvature="0" /><path
         d="m 4289.57,5894.8 c -6.25,-0.07 -11.6,2.19 -16.05,6.76 -4.5,4.61 -6.8,9.73 -6.88,15.43 0,6.02 2.19,11.25 6.56,15.86 4.38,4.49 9.69,6.8 15.94,6.88 6.37,0.11 11.76,-2.11 16.06,-6.61 4.37,-4.57 6.56,-9.84 6.56,-15.85 0.08,-5.67 -1.99,-10.82 -6.29,-15.43 -4.22,-4.57 -9.53,-6.92 -15.9,-7.04 z"
         style="fill:#000000;fill-opacity:1;fill-rule:nonzero;stroke:none"
         id="path186"
         inkscape:connector-curvature="0" /><path
         d="m 4288.87,1978.95 c -6.21,-0.08 -11.57,2.14 -16.06,6.71 -4.45,4.65 -6.76,9.77 -6.87,15.47 0,5.98 2.22,11.25 6.6,15.82 4.37,4.53 9.69,6.84 15.9,6.92 6.36,0.08 11.76,-2.11 16.05,-6.64 4.38,-4.57 6.6,-9.85 6.6,-15.82 0.08,-5.71 -1.99,-10.82 -6.29,-15.47 -4.25,-4.57 -9.53,-6.92 -15.93,-6.99 z"
         style="fill:#000000;fill-opacity:1;fill-rule:nonzero;stroke:none"
         id="path188"
         inkscape:connector-curvature="0" /><path
         d="m 4289.57,1907.5 c -6.25,-0.08 -11.6,2.15 -16.05,6.72 -4.5,4.65 -6.8,9.76 -6.88,15.47 0,5.97 2.19,11.25 6.56,15.82 4.38,4.53 9.69,6.83 15.94,6.91 6.37,0.08 11.72,-2.11 16.06,-6.64 4.37,-4.57 6.56,-9.84 6.56,-15.82 0.08,-5.7 -1.99,-10.82 -6.29,-15.43 -4.22,-4.61 -9.53,-6.95 -15.9,-7.03 z"
         style="fill:#000000;fill-opacity:1;fill-rule:nonzero;stroke:none"
         id="path190"
         inkscape:connector-curvature="0" /><path
         d="m 4290.23,1836.02 c -6.25,-0.08 -11.56,2.14 -16.05,6.75 -4.45,4.61 -6.76,9.73 -6.88,15.43 0,5.98 2.23,11.25 6.61,15.82 4.37,4.53 9.68,6.84 15.89,6.92 6.37,0.08 11.76,-2.11 16.06,-6.64 4.37,-4.57 6.6,-9.85 6.6,-15.82 0.08,-5.71 -2.03,-10.82 -6.33,-15.43 -4.22,-4.57 -9.53,-6.92 -15.9,-7.03 z"
         style="fill:#000000;fill-opacity:1;fill-rule:nonzero;stroke:none"
         id="path192"
         inkscape:connector-curvature="0" /><path
         d="m 3657.97,7828.09 v -49.69 h 59.22 v -22.35 h -59.22 v -95 c 0,-14.29 1.91,-23.43 5.78,-27.5 3.95,-4.06 11.91,-6.09 23.91,-6.09 h 29.53 v -24.06 h -29.53 c -22.19,0 -37.5,4.1 -45.94,12.34 -8.44,8.32 -12.66,23.44 -12.66,45.31 v 95 h -21.09 v 22.35 h 21.09 v 49.69 z"
         style="fill:#000000;fill-opacity:1;fill-rule:nonzero;stroke:none"
         id="path194"
         inkscape:connector-curvature="0" /><path
         d="m 4333.71,3972.19 c 0,-23.75 -19.26,-43.01 -43.01,-43.01 -23.79,0 -43.04,19.26 -43.04,43.01 0,23.75 19.25,43.01 43.04,43.01 23.75,0 43.01,-19.26 43.01,-43.01 z"
         style="fill:#000000;fill-opacity:1;fill-rule:nonzero;stroke:none"
         id="path196"
         inkscape:connector-curvature="0" /><path
         d="m 3774.02,7646.45 h 16.1016 v -98.4375 H 3774.02 Z m 0,38.28 h 16.1016 v -20.4688 H 3774.02 Z"
         style="fill:#000000;fill-opacity:1;fill-rule:nonzero;stroke:none"
         id="path198"
         inkscape:connector-curvature="0" /><path
         d="m 3814.53,7590.04 h 47.3398 v 14.5313 H 3814.53 Z"
         style="fill:#000000;fill-opacity:1;fill-rule:nonzero;stroke:none"
         id="path200"
         inkscape:connector-curvature="0" /><path
         d="m 3885.78,7684.73 h 16.25 v -80.78 l 48.28,42.5 h 20.63 l -52.19,-46.1 54.37,-52.34 h -21.09 l -50,48.12 v -48.12 h -16.25 z"
         style="fill:#000000;fill-opacity:1;fill-rule:nonzero;stroke:none"
         id="path202"
         inkscape:connector-curvature="0" /><path
         d="m 378.91,5845.98 h 16.0898 v -98.4414 H 378.91 Z m 0,38.28 h 16.0898 v -20.4727 H 378.91 Z"
         style="fill:#000000;fill-opacity:1;fill-rule:nonzero;stroke:none"
         id="path204"
         inkscape:connector-curvature="0" /><path
         d="m 3655.98,5890.51 v -49.69 h 59.22 v -22.34 h -59.22 v -95 c 0,-14.3 1.91,-23.44 5.78,-27.5 3.94,-4.07 11.91,-6.1 23.9,-6.1 h 29.54 v -24.06 h -29.54 c -22.18,0 -37.5,4.1 -45.93,12.34 -8.44,8.32 -12.66,23.44 -12.66,45.32 v 95 h -21.09 v 22.34 h 21.09 v 49.69 z"
         style="fill:#000000;fill-opacity:1;fill-rule:nonzero;stroke:none"
         id="path206"
         inkscape:connector-curvature="0" /><path
         d="m 3772.03,5708.87 h 16.0898 v -98.4414 H 3772.03 Z m 0,38.28 h 16.0898 v -20.4727 H 3772.03 Z"
         style="fill:#000000;fill-opacity:1;fill-rule:nonzero;stroke:none"
         id="path208"
         inkscape:connector-curvature="0" /><path
         d="m 3812.58,5652.46 c 11.1581,-11.1581 47.3398,0 47.3398,0 0,0 3.4241,11.1032 0,14.5273 -11.1581,11.1581 -47.3398,0 -47.3398,0 0,0 -3.4241,-11.1032 0,-14.5273 z"
         style="fill:#000000;fill-opacity:1;fill-rule:nonzero;stroke:none"
         id="path210"
         inkscape:connector-curvature="0"
         sodipodi:nodetypes="scscs" /><path
         d="m 3889.73,5625.43 h 29.06 v 100 l -31.56,-6.25 v 16.09 l 31.25,6.41 h 17.81 v -116.25 h 29.06 v -15 h -75.62 z"
         style="fill:#000000;fill-opacity:1;fill-rule:nonzero;stroke:none"
         id="path212"
         inkscape:connector-curvature="0" /><path
         d="m 3667.85,2425.94 v -49.69 h 59.22 v -22.34 h -59.22 v -95 c 0,-14.3 1.92,-23.44 5.78,-27.5 3.95,-4.07 11.92,-6.1 23.91,-6.1 h 29.53 v -24.06 h -29.53 c -22.19,0 -37.5,4.1 -45.94,12.34 -8.44,8.32 -12.65,23.44 -12.65,45.32 v 95 h -21.1 v 22.34 h 21.1 v 49.69 z"
         style="fill:#000000;fill-opacity:1;fill-rule:nonzero;stroke:none"
         id="path214"
         inkscape:connector-curvature="0" /><path
         d="m 3783.91,2244.26 h 16.0898 v -98.4414 H 3783.91 Z m 0,38.28 h 16.0898 v -20.4688 H 3783.91 Z"
         style="fill:#000000;fill-opacity:1;fill-rule:nonzero;stroke:none"
         id="path216"
         inkscape:connector-curvature="0" /><path
         d="m 3898.48,2258.63 v -48.9 h 48.9 v -15 h -48.9 v -48.91 h -14.85 v 48.91 h -48.9 v 15 h 48.9 v 48.9 z"
         style="fill:#000000;fill-opacity:1;fill-rule:nonzero;stroke:none"
         id="path218"
         inkscape:connector-curvature="0" /><path
         d="m 3985.43,2160.82 h 29.06 v 100 l -31.56,-6.25 v 16.09 l 31.25,6.41 h 17.81 v -116.25 h 29.06 v -15 h -75.62 z"
         style="fill:#000000;fill-opacity:1;fill-rule:nonzero;stroke:none"
         id="path220"
         inkscape:connector-curvature="0" /><path
         d="M 3679.73,331.762 V 282.07 h 59.22 v -22.34 h -59.22 v -95 c 0,-14.3 1.91,-23.441 5.78,-27.5 3.94,-4.07 11.91,-6.101 23.9,-6.101 h 29.54 V 107.07 h -29.54 c -22.18,0 -37.5,4.102 -45.93,12.34 -8.44,8.32 -12.66,23.442 -12.66,45.32 v 95 h -21.09 v 22.34 h 21.09 v 49.692 z"
         style="fill:#000000;fill-opacity:1;fill-rule:nonzero;stroke:none"
         id="path222"
         inkscape:connector-curvature="0" /><path
         d="m 3795.78,150.121 h 16.0977 V 51.6796 H 3795.78 Z m 0,38.277 h 16.0977 V 167.9292 H 3795.78 Z"
         style="fill:#000000;fill-opacity:1;fill-rule:nonzero;stroke:none"
         id="path224"
         inkscape:connector-curvature="0" /><path
         d="M 3910.35,164.488 V 115.59 h 48.91 v -15 h -48.91 V 51.6797 h -14.84 V 100.59 h -48.91 v 15 h 48.91 v 48.898 z"
         style="fill:#000000;fill-opacity:1;fill-rule:nonzero;stroke:none"
         id="path226"
         inkscape:connector-curvature="0" /><path
         d="m 3991.37,188.398 h 16.25 v -80.777 l 48.28,42.5 h 20.62 l -52.18,-46.101 54.37,-52.3403 h -21.09 l -50,48.1211 V 51.6797 h -16.25 z"
         style="fill:#000000;fill-opacity:1;fill-rule:nonzero;stroke:none"
         id="path228"
         inkscape:connector-curvature="0" /></g><rect
       id="rect230"
       width="44.409962"
       height="47.761658"
       x="7.5413141"
       y="-615.87396"
       transform="scale(1,-1)"
       style="stroke-width:0.75;fill:#ffffff" /><path
       d="m 24.67702,600.98126 v -4.969 h 5.922 v -2.234 h -5.922 v -9.5 c 0,-1.43 0.191,-2.34399 0.578,-2.75 0.394,-0.40699 1.191,-0.61 2.39,-0.61 h 2.954 v -2.406 h -2.954 c -2.218,0 -3.75,0.41 -4.593,1.234 -0.844,0.83201 -1.266,2.34401 -1.266,4.532 v 9.5 h -2.109 v 2.234 h 2.109 v 4.969 z"
       style="fill:#000000;fill-opacity:1;fill-rule:nonzero;stroke:none;stroke-width:0.09999999"
       id="path206-3"
       inkscape:connector-curvature="0" /><path
       d="M 36.28202,582.81726 H 37.891 v -9.84414 h -1.60898 z m 0,3.828 H 37.891 V 584.598 h -1.60898 z"
       style="fill:#000000;fill-opacity:1;fill-rule:nonzero;stroke:none;stroke-width:0.09999999"
       id="path208-6"
       inkscape:connector-curvature="0" /></g></svg>